<svg xmlns="http://www.w3.org/2000/svg" xmlns:xlink="http://www.w3.org/1999/xlink" width="470" zoomAndPan="magnify" viewBox="0 0 352.5 118.499997" height="158" preserveAspectRatio="xMidYMid meet" version="1.0"><defs><g/><clipPath id="bfb52d34cd"><path d="M 0.609375 12 L 56 12 L 56 117.667969 L 0.609375 117.667969 Z M 0.609375 12 " clip-rule="nonzero"/></clipPath><clipPath id="bc6e3104e1"><path d="M 44 0.246094 L 98.582031 0.246094 L 98.582031 106 L 44 106 Z M 44 0.246094 " clip-rule="nonzero"/></clipPath><clipPath id="0492ed1842"><path d="M 23.601562 29.074219 L 75.207031 29.074219 L 75.207031 78.433594 L 23.601562 78.433594 Z M 23.601562 29.074219 " clip-rule="nonzero"/></clipPath></defs><g fill="#f8fbff" fill-opacity="1"><g transform="translate(106.562795, 80.749181)"><g><path d="M 9.015625 0.484375 C 8.046875 0.484375 7.296875 0.222656 6.765625 -0.296875 C 6.242188 -0.828125 5.984375 -1.597656 5.984375 -2.609375 L 5.984375 -45.40625 C 5.984375 -46.414062 6.242188 -47.179688 6.765625 -47.703125 C 7.296875 -48.234375 8.066406 -48.5 9.078125 -48.5 L 34.046875 -48.5 C 34.828125 -48.5 35.425781 -48.289062 35.84375 -47.875 C 36.257812 -47.46875 36.46875 -46.894531 36.46875 -46.15625 C 36.46875 -45.382812 36.257812 -44.789062 35.84375 -44.375 C 35.425781 -43.957031 34.828125 -43.75 34.046875 -43.75 L 11.625 -43.75 L 11.625 -26.828125 L 32.609375 -26.828125 C 33.390625 -26.828125 34 -26.617188 34.4375 -26.203125 C 34.875 -25.796875 35.09375 -25.222656 35.09375 -24.484375 C 35.09375 -23.710938 34.875 -23.117188 34.4375 -22.703125 C 34 -22.285156 33.390625 -22.078125 32.609375 -22.078125 L 11.625 -22.078125 L 11.625 -2.609375 C 11.625 -0.546875 10.753906 0.484375 9.015625 0.484375 Z M 9.015625 0.484375 "/></g></g></g><g fill="#f8fbff" fill-opacity="1"><g transform="translate(143.161964, 80.749181)"><g><path d="M 9.078125 0 C 8.066406 0 7.296875 -0.257812 6.765625 -0.78125 C 6.242188 -1.3125 5.984375 -2.082031 5.984375 -3.09375 L 5.984375 -45.40625 C 5.984375 -46.414062 6.242188 -47.179688 6.765625 -47.703125 C 7.296875 -48.234375 8.066406 -48.5 9.078125 -48.5 L 34.671875 -48.5 C 35.453125 -48.5 36.046875 -48.289062 36.453125 -47.875 C 36.867188 -47.46875 37.078125 -46.894531 37.078125 -46.15625 C 37.078125 -45.382812 36.867188 -44.789062 36.453125 -44.375 C 36.046875 -43.957031 35.453125 -43.75 34.671875 -43.75 L 11.484375 -43.75 L 11.484375 -26.96875 L 33.234375 -26.96875 C 34.003906 -26.96875 34.597656 -26.769531 35.015625 -26.375 C 35.429688 -25.988281 35.640625 -25.40625 35.640625 -24.625 C 35.640625 -23.84375 35.429688 -23.242188 35.015625 -22.828125 C 34.597656 -22.421875 34.003906 -22.21875 33.234375 -22.21875 L 11.484375 -22.21875 L 11.484375 -4.75 L 34.671875 -4.75 C 35.453125 -4.75 36.046875 -4.539062 36.453125 -4.125 C 36.867188 -3.71875 37.078125 -3.144531 37.078125 -2.40625 C 37.078125 -1.625 36.867188 -1.023438 36.453125 -0.609375 C 36.046875 -0.203125 35.453125 0 34.671875 0 Z M 9.078125 0 "/></g></g></g><g fill="#f8fbff" fill-opacity="1"><g transform="translate(182.168987, 80.749181)"><g><path d="M 9.078125 0 C 8.066406 0 7.296875 -0.257812 6.765625 -0.78125 C 6.242188 -1.3125 5.984375 -2.082031 5.984375 -3.09375 L 5.984375 -45.40625 C 5.984375 -46.414062 6.242188 -47.179688 6.765625 -47.703125 C 7.296875 -48.234375 8.066406 -48.5 9.078125 -48.5 L 34.671875 -48.5 C 35.453125 -48.5 36.046875 -48.289062 36.453125 -47.875 C 36.867188 -47.46875 37.078125 -46.894531 37.078125 -46.15625 C 37.078125 -45.382812 36.867188 -44.789062 36.453125 -44.375 C 36.046875 -43.957031 35.453125 -43.75 34.671875 -43.75 L 11.484375 -43.75 L 11.484375 -26.96875 L 33.234375 -26.96875 C 34.003906 -26.96875 34.597656 -26.769531 35.015625 -26.375 C 35.429688 -25.988281 35.640625 -25.40625 35.640625 -24.625 C 35.640625 -23.84375 35.429688 -23.242188 35.015625 -22.828125 C 34.597656 -22.421875 34.003906 -22.21875 33.234375 -22.21875 L 11.484375 -22.21875 L 11.484375 -4.75 L 34.671875 -4.75 C 35.453125 -4.75 36.046875 -4.539062 36.453125 -4.125 C 36.867188 -3.71875 37.078125 -3.144531 37.078125 -2.40625 C 37.078125 -1.625 36.867188 -1.023438 36.453125 -0.609375 C 36.046875 -0.203125 35.453125 0 34.671875 0 Z M 9.078125 0 "/></g></g></g><g fill="#f8fbff" fill-opacity="1"><g transform="translate(221.176008, 80.749181)"><g><path d="M 9.078125 0 C 8.066406 0 7.296875 -0.257812 6.765625 -0.78125 C 6.242188 -1.3125 5.984375 -2.082031 5.984375 -3.09375 L 5.984375 -45.40625 C 5.984375 -46.414062 6.242188 -47.179688 6.765625 -47.703125 C 7.296875 -48.234375 8.066406 -48.5 9.078125 -48.5 L 22.359375 -48.5 C 30.203125 -48.5 36.253906 -46.4375 40.515625 -42.3125 C 44.785156 -38.1875 46.921875 -32.175781 46.921875 -24.28125 C 46.921875 -20.34375 46.378906 -16.867188 45.296875 -13.859375 C 44.222656 -10.859375 42.628906 -8.328125 40.515625 -6.265625 C 38.410156 -4.203125 35.84375 -2.640625 32.8125 -1.578125 C 29.789062 -0.523438 26.304688 0 22.359375 0 Z M 11.625 -4.8125 L 21.953125 -4.8125 C 25.160156 -4.8125 27.941406 -5.222656 30.296875 -6.046875 C 32.660156 -6.878906 34.632812 -8.097656 36.21875 -9.703125 C 37.800781 -11.304688 38.984375 -13.332031 39.765625 -15.78125 C 40.546875 -18.238281 40.9375 -21.070312 40.9375 -24.28125 C 40.9375 -30.75 39.351562 -35.597656 36.1875 -38.828125 C 33.019531 -42.066406 28.273438 -43.6875 21.953125 -43.6875 L 11.625 -43.6875 Z M 11.625 -4.8125 "/></g></g></g><g fill="#f8fbff" fill-opacity="1"><g transform="translate(271.121566, 80.749181)"><g><path d="M 8.8125 0.484375 C 7.894531 0.484375 7.191406 0.222656 6.703125 -0.296875 C 6.222656 -0.828125 5.984375 -1.554688 5.984375 -2.484375 L 5.984375 -46.03125 C 5.984375 -46.988281 6.222656 -47.71875 6.703125 -48.21875 C 7.191406 -48.726562 7.894531 -48.984375 8.8125 -48.984375 C 9.726562 -48.984375 10.425781 -48.726562 10.90625 -48.21875 C 11.382812 -47.71875 11.625 -46.988281 11.625 -46.03125 L 11.625 -2.484375 C 11.625 -1.554688 11.394531 -0.828125 10.9375 -0.296875 C 10.476562 0.222656 9.769531 0.484375 8.8125 0.484375 Z M 8.8125 0.484375 "/></g></g></g><g fill="#f8fbff" fill-opacity="1"><g transform="translate(287.701167, 80.749181)"><g><path d="M 26.34375 0.625 C 21.851562 0.625 17.941406 -0.394531 14.609375 -2.4375 C 11.285156 -4.476562 8.71875 -7.359375 6.90625 -11.078125 C 5.101562 -14.796875 4.203125 -19.195312 4.203125 -24.28125 C 4.203125 -28.132812 4.71875 -31.585938 5.75 -34.640625 C 6.78125 -37.691406 8.257812 -40.28125 10.1875 -42.40625 C 12.113281 -44.539062 14.441406 -46.191406 17.171875 -47.359375 C 19.898438 -48.535156 22.957031 -49.125 26.34375 -49.125 C 30.9375 -49.125 34.894531 -48.113281 38.21875 -46.09375 C 41.539062 -44.070312 44.109375 -41.210938 45.921875 -37.515625 C 47.734375 -33.828125 48.640625 -29.441406 48.640625 -24.359375 C 48.640625 -20.503906 48.109375 -17.039062 47.046875 -13.96875 C 45.992188 -10.894531 44.503906 -8.28125 42.578125 -6.125 C 40.660156 -3.96875 38.335938 -2.300781 35.609375 -1.125 C 32.878906 0.0390625 29.789062 0.625 26.34375 0.625 Z M 26.34375 -4.40625 C 29.832031 -4.40625 32.78125 -5.179688 35.1875 -6.734375 C 37.59375 -8.296875 39.4375 -10.566406 40.71875 -13.546875 C 42.007812 -16.535156 42.65625 -20.113281 42.65625 -24.28125 C 42.65625 -30.5625 41.242188 -35.429688 38.421875 -38.890625 C 35.597656 -42.359375 31.570312 -44.09375 26.34375 -44.09375 C 22.957031 -44.09375 20.054688 -43.3125 17.640625 -41.75 C 15.234375 -40.195312 13.390625 -37.941406 12.109375 -34.984375 C 10.828125 -32.023438 10.1875 -28.457031 10.1875 -24.28125 C 10.1875 -18.039062 11.609375 -13.164062 14.453125 -9.65625 C 17.296875 -6.15625 21.257812 -4.40625 26.34375 -4.40625 Z M 26.34375 -4.40625 "/></g></g></g><g clip-path="url(#bfb52d34cd)"><path fill="#0f2830" d="M 54.148438 96.15625 L 37.832031 80.464844 C 36.863281 79.976562 35.699219 80.039062 34.769531 80.59375 C 33.832031 81.140625 33.265625 82.128906 33.265625 83.183594 L 33.265625 92.628906 L 26.984375 92.628906 C 19.238281 92.628906 13.167969 86.59375 13.167969 78.886719 L 13.167969 39.0625 C 13.167969 31.394531 19.4375 25.15625 27.148438 25.15625 C 30.617188 25.15625 33.429688 22.359375 33.429688 18.910156 C 33.429688 15.460938 30.617188 12.664062 27.148438 12.664062 C 12.515625 12.664062 0.609375 24.507812 0.609375 39.0625 L 0.609375 78.886719 C 0.609375 93.355469 12.441406 105.125 26.984375 105.125 L 33.265625 105.125 L 33.265625 114.574219 C 33.265625 115.628906 33.832031 116.617188 34.769531 117.164062 C 35.269531 117.464844 35.84375 117.621094 36.417969 117.621094 C 36.902344 117.621094 37.386719 117.511719 37.832031 117.292969 L 54.148438 101.601562 C 55.117188 100.703125 55.875 100.03125 55.875 98.878906 C 55.875 97.730469 55.226562 97.101562 54.148438 96.15625 Z M 54.148438 96.15625 " fill-opacity="1" fill-rule="nonzero"/></g><g clip-path="url(#bc6e3104e1)"><path fill="#0f2830" d="M 72.042969 12.664062 L 67.179688 12.664062 L 67.179688 3.375 C 67.179688 2.320312 66.5625 1.332031 65.625 0.78125 C 65.125 0.488281 64.527344 0.328125 63.953125 0.328125 C 63.464844 0.328125 62.96875 0.4375 62.523438 0.65625 L 46.203125 16.347656 C 45.230469 17.25 44.46875 17.917969 44.46875 19.074219 C 44.46875 20.222656 45.113281 20.847656 46.195312 21.792969 L 62.507812 37.488281 C 63.480469 37.972656 64.699219 37.910156 65.625 37.359375 C 66.5625 36.808594 67.179688 35.824219 67.179688 34.765625 L 67.179688 25.15625 L 72.042969 25.15625 C 79.753906 25.15625 86.023438 31.394531 86.023438 39.0625 L 86.023438 78.726562 C 86.023438 86.394531 79.753906 92.628906 72.042969 92.628906 C 68.574219 92.628906 65.761719 95.425781 65.761719 98.878906 C 65.761719 102.328125 68.574219 105.125 72.042969 105.125 C 86.675781 105.125 98.582031 93.28125 98.582031 78.726562 L 98.582031 39.0625 C 98.582031 24.507812 86.675781 12.664062 72.042969 12.664062 Z M 72.042969 12.664062 " fill-opacity="1" fill-rule="nonzero"/></g><g clip-path="url(#0492ed1842)"><path fill="#f4c01e" d="M 49.402344 29.074219 L 56.046875 44.101562 C 56.300781 44.679688 56.703125 45.175781 57.210938 45.546875 C 57.71875 45.921875 58.316406 46.148438 58.941406 46.214844 L 75.203125 47.929688 L 63.046875 58.929688 C 62.582031 59.351562 62.234375 59.890625 62.039062 60.492188 C 61.84375 61.09375 61.8125 61.734375 61.941406 62.351562 L 65.347656 78.4375 L 51.191406 70.210938 C 50.648438 69.894531 50.03125 69.726562 49.402344 69.726562 C 48.773438 69.726562 48.15625 69.894531 47.613281 70.210938 L 33.457031 78.4375 L 36.863281 62.351562 C 36.992188 61.734375 36.960938 61.09375 36.765625 60.492188 C 36.570312 59.890625 36.222656 59.351562 35.757812 58.929688 L 23.601562 47.929688 L 39.863281 46.214844 C 40.488281 46.148438 41.085938 45.921875 41.59375 45.546875 C 42.101562 45.175781 42.503906 44.679688 42.757812 44.101562 Z M 49.402344 29.074219 " fill-opacity="1" fill-rule="evenodd"/></g></svg>