<svg viewBox="0 0 1000 1000" xmlns="http://www.w3.org/2000/svg"><defs><clipPath id="a"><path fill="currentColor" d="M791.5 668.5Q695 837 490 854.5T175.5 686Q66 500 199.5 355.5t309.5-160Q685 180 786.5 340t5 328.5Z"/></clipPath><pattern id="b" patternUnits="userSpaceOnUse" width="200" height="200" viewBox="0 0 100 100" fill="#00D37F"><path d="M15.204 9.513c.79-1.41.615-2.507-.4-3.087-1.048-.597-2.36-.072-3.113 1.274-1.204 2.155-1.195 4.408-.148 7.728.99 2.895 3.024 6.439 5.463 9.744 1.65 2.236 4.163 2.37 5.901.42.64-.72.955-1.542.417-2.444a1.728 1.728 0 0 0-2.186-.835c-.762.253-1.208-.029-1.604-.66a50.914 50.914 0 0 1-4.599-9.097 3.484 3.484 0 0 1 .27-3.043ZM39.51 12.4c.052-1.058.98-1.859 2.227-1.907.26-.01.52.004.778.04.684.085 1.37.188 2.033.284a29.148 29.148 0 0 1 4.046 1.797c2.503 1.453 5.034 2.868 7.527 4.336a11.38 11.38 0 0 1 2.991 2.662 2.334 2.334 0 0 1-.029 3.07 2.148 2.148 0 0 1-2.954-.113c-3.498-3.215-8.03-4.708-11.95-7.214-.803-.51-1.807-.57-2.748-.736a2.123 2.123 0 0 1-1.92-2.219ZM77.467 7.125c1.049-.606 2.383-.244 3.27.857a34.017 34.017 0 0 1 2.972 4.61c2.021 3.309 3.457 6.897 5.01 10.432.681 1.552.243 2.819-1.01 3.416-1.21.581-2.503.188-3.234-1.232-2.566-4.97-4.937-10.038-7.837-14.83a2.347 2.347 0 0 1 .83-3.253ZM23.185 41.263c.41.074.782.287 1.052.605a3.978 3.978 0 0 1 .134 5.355 9.824 9.824 0 0 1-.745.752c-1.271 1.32-2.892 2.135-4.513 2.906-2.941 1.4-5.843 2.851-8.427 4.866a5.468 5.468 0 0 1-.887.566c-.906.463-1.747.417-2.42-.421a1.788 1.788 0 0 1 .232-2.533 28.456 28.456 0 0 1 6.237-4.356c2.096-1.14 4.323-2.036 6.314-3.382.787-.531 1.273-1.026.881-2.099-.313-.864.124-1.623.945-2.055a1.795 1.795 0 0 1 1.197-.204ZM47.307 41.563c-.416-1.428.105-2.398 1.159-2.698 1.307-.374 2.24.2 2.703 1.75.59 1.949 1.085 3.93.975 5.453-.048 3.446-.633 6.291-.854 9.173-.084 1.054-.116 2.113-.195 3.167-.11 1.433-.77 2.16-1.96 2.203-1.19.042-1.928-.633-2.092-2.066-.284-2.492.153-4.958.485-7.414.437-3.214.7-6.38-.221-9.568ZM73.755 45.383a17.81 17.81 0 0 1 4.279.643c1.144.27 2.27.603 3.405.907a59.681 59.681 0 0 1 8.595 2.775 6.95 6.95 0 0 1 2.4 1.45c.649.672.922 1.49.378 2.346a1.761 1.761 0 0 1-2.368.681c-5.202-2.227-10.667-3.592-16.123-4.986a6.921 6.921 0 0 1-1.121-.337 1.7 1.7 0 0 1-1.12-1.967 1.628 1.628 0 0 1 1.675-1.512ZM17.765 90.911c.407 1.124.025 2.105-.87 2.532-.93.447-1.802.108-2.471-.952-.755-1.197-.881-2.56-1.041-3.793.152-2.988.885-5.735 1.544-8.503.519-2.174 1.07-4.342 1.579-6.521.299-1.28 1.106-2.022 2.136-1.88 1.062.143 1.661.992 1.548 2.385-.196 2.395-.93 4.681-1.428 7.017-.531 2.478-1.3 4.912-1.316 7.483-.03.757.079 1.514.32 2.232ZM49.211 74.533c-.996-.951-.61-2.243.718-2.628 1.977-.575 3.523.86 3.199 2.956-.316 2.022-1.1 3.908-1.682 5.852-1.095 3.683-2.239 7.35-2.05 11.274.05.992-.505 1.59-1.353 1.644-.915.058-1.386-.5-1.612-1.312a5.857 5.857 0 0 1-.197-1.03c-.057-.533-.07-1.074-.102-1.611.028-3.42 1.05-6.631 2.021-9.85.402-1.337.886-2.65 1.366-3.962a1.08 1.08 0 0 0-.308-1.333ZM81.618 71.942a3.446 3.446 0 0 1 1.821-.078h.001c1.157.19 1.833 1.003 2.134 2.134.18.895.26 1.806.24 2.718-.44 4.597-.41 9.24-1.162 13.815a6.795 6.795 0 0 1-.609 1.914 1.833 1.833 0 0 1-2.232 1.116 1.75 1.75 0 0 1-1.428-2.047c.707-3.87.471-7.811.973-11.69.097-.743.092-1.5.154-2.248.071-.875-.036-1.55-.973-2.042a1.749 1.749 0 0 1-.445-2.595c.41-.463.937-.807 1.526-.997Z" fill="current"/></pattern></defs><g clip-path="url(#a)"><path fill="url(#b)" d="M791.5 668.5Q695 837 490 854.5T175.5 686Q66 500 199.5 355.5t309.5-160Q685 180 786.5 340t5 328.5Z"/></g></svg>