<svg width="604" height="450" viewBox="0 0 604 450" fill="none" xmlns="http://www.w3.org/2000/svg">
<path d="M0.5 50C0.5 22.3858 22.8858 0 50.5 0H553.5C581.114 0 603.5 22.3858 603.5 50V400C603.5 427.614 581.114 450 553.5 450H50.5C22.8858 450 0.5 427.614 0.5 400V50Z" fill="white"/>
<path d="M20.5 50C20.5 33.4315 33.9315 20 50.5 20H554.5C571.069 20 584.5 33.4315 584.5 50V400C584.5 416.569 571.069 430 554.5 430H50.5C33.9315 430 20.5 416.569 20.5 400V50Z" fill="#F7F7F7"/>
<path d="M432.08 314.62C432.96 314.62 433.61 314.8 434.03 315.16C434.47 315.5 434.69 316.04 434.69 316.78C434.69 317.54 434.47 318.1 434.03 318.46C433.61 318.82 432.96 319 432.08 319H421.13C420.41 319 419.84 318.79 419.42 318.37C419 317.93 418.79 317.38 418.79 316.72C418.79 315.86 419.13 315.08 419.81 314.38L426.17 307.75C427.49 306.37 428.15 305.1 428.15 303.94C428.15 303.26 427.95 302.74 427.55 302.38C427.17 302.02 426.62 301.84 425.9 301.84C425.32 301.84 424.78 301.93 424.28 302.11C423.8 302.27 423.24 302.51 422.6 302.83L422 303.13C421.92 303.17 421.76 303.26 421.52 303.4C421.3 303.52 421.1 303.61 420.92 303.67C420.74 303.73 420.55 303.76 420.35 303.76C419.85 303.76 419.43 303.54 419.09 303.1C418.75 302.64 418.58 302.1 418.58 301.48C418.58 301.04 418.64 300.68 418.76 300.4C418.9 300.12 419.15 299.86 419.51 299.62C420.45 298.98 421.5 298.48 422.66 298.12C423.84 297.76 425 297.58 426.14 297.58C427.62 297.58 428.92 297.83 430.04 298.33C431.16 298.81 432.02 299.51 432.62 300.43C433.24 301.33 433.55 302.37 433.55 303.55C433.55 304.77 433.3 305.89 432.8 306.91C432.32 307.91 431.49 309.03 430.31 310.27L426.05 314.62H432.08ZM444.518 319.27C441.898 319.27 439.898 318.34 438.518 316.48C437.138 314.62 436.448 311.93 436.448 308.41C436.448 304.91 437.138 302.23 438.518 300.37C439.898 298.51 441.898 297.58 444.518 297.58C447.118 297.58 449.108 298.51 450.488 300.37C451.888 302.23 452.588 304.91 452.588 308.41C452.588 311.93 451.898 314.62 450.518 316.48C449.138 318.34 447.138 319.27 444.518 319.27ZM444.518 315.1C445.478 315.1 446.168 314.58 446.588 313.54C447.008 312.5 447.218 310.79 447.218 308.41C447.218 306.05 447.008 304.35 446.588 303.31C446.168 302.27 445.478 301.75 444.518 301.75C443.558 301.75 442.868 302.27 442.448 303.31C442.028 304.33 441.818 306.03 441.818 308.41C441.818 310.79 442.028 312.5 442.448 313.54C442.868 314.58 443.558 315.1 444.518 315.1ZM464.486 318.28C464.226 318.72 463.916 319.05 463.556 319.27C463.216 319.49 462.866 319.6 462.506 319.6C462.026 319.6 461.606 319.42 461.246 319.06C460.886 318.7 460.706 318.26 460.706 317.74C460.706 317.28 460.846 316.81 461.126 316.33L471.416 298.57C471.676 298.13 471.976 297.8 472.316 297.58C472.676 297.36 473.036 297.25 473.396 297.25C473.896 297.25 474.316 297.43 474.656 297.79C475.016 298.13 475.196 298.57 475.196 299.11C475.196 299.57 475.056 300.04 474.776 300.52L464.486 318.28ZM460.016 310.42C458.256 310.42 456.876 309.86 455.876 308.74C454.876 307.62 454.376 306.01 454.376 303.91C454.376 301.85 454.876 300.27 455.876 299.17C456.876 298.05 458.256 297.49 460.016 297.49C461.776 297.49 463.156 298.05 464.156 299.17C465.156 300.27 465.656 301.86 465.656 303.94C465.656 306.04 465.156 307.65 464.156 308.77C463.156 309.87 461.776 310.42 460.016 310.42ZM460.016 307.18C460.476 307.18 460.806 306.94 461.006 306.46C461.226 305.96 461.336 305.12 461.336 303.94C461.336 302.8 461.226 301.99 461.006 301.51C460.786 301.01 460.456 300.76 460.016 300.76C459.556 300.76 459.216 301.01 458.996 301.51C458.796 301.99 458.696 302.8 458.696 303.94C458.696 305.12 458.796 305.96 458.996 306.46C459.216 306.94 459.556 307.18 460.016 307.18ZM475.886 319.21C474.126 319.21 472.746 318.65 471.746 317.53C470.746 316.41 470.246 314.8 470.246 312.7C470.246 310.64 470.746 309.06 471.746 307.96C472.746 306.84 474.126 306.28 475.886 306.28C477.646 306.28 479.026 306.84 480.026 307.96C481.026 309.06 481.526 310.65 481.526 312.73C481.526 314.83 481.026 316.44 480.026 317.56C479.026 318.66 477.646 319.21 475.886 319.21ZM475.886 315.97C476.346 315.97 476.676 315.73 476.876 315.25C477.096 314.75 477.206 313.91 477.206 312.73C477.206 311.59 477.096 310.77 476.876 310.27C476.656 309.77 476.326 309.52 475.886 309.52C475.426 309.52 475.086 309.77 474.866 310.27C474.666 310.75 474.566 311.57 474.566 312.73C474.566 313.91 474.666 314.75 474.866 315.25C475.086 315.73 475.426 315.97 475.886 315.97Z" fill="#242331"/>
<path d="M421.24 285.16C420.853 285.16 420.553 285.053 420.34 284.84C420.14 284.627 420.04 284.32 420.04 283.92V272.02C420.04 271.607 420.14 271.293 420.34 271.08C420.553 270.853 420.827 270.74 421.16 270.74C421.467 270.74 421.693 270.8 421.84 270.92C422 271.027 422.187 271.213 422.4 271.48L430.06 281.42H429.54V271.96C429.54 271.573 429.64 271.273 429.84 271.06C430.053 270.847 430.353 270.74 430.74 270.74C431.127 270.74 431.42 270.847 431.62 271.06C431.82 271.273 431.92 271.573 431.92 271.96V283.96C431.92 284.333 431.827 284.627 431.64 284.84C431.453 285.053 431.2 285.16 430.88 285.16C430.573 285.16 430.327 285.1 430.14 284.98C429.967 284.86 429.773 284.667 429.56 284.4L421.92 274.46H422.42V283.92C422.42 284.32 422.32 284.627 422.12 284.84C421.92 285.053 421.627 285.16 421.24 285.16ZM439.281 285.2C438.174 285.2 437.221 284.993 436.421 284.58C435.621 284.167 435.001 283.58 434.561 282.82C434.134 282.06 433.921 281.16 433.921 280.12C433.921 279.107 434.128 278.22 434.541 277.46C434.968 276.7 435.548 276.107 436.281 275.68C437.028 275.24 437.874 275.02 438.821 275.02C439.514 275.02 440.134 275.133 440.681 275.36C441.241 275.587 441.714 275.913 442.101 276.34C442.501 276.767 442.801 277.287 443.001 277.9C443.214 278.5 443.321 279.18 443.321 279.94C443.321 280.18 443.234 280.367 443.061 280.5C442.901 280.62 442.668 280.68 442.361 280.68H435.941V279.24H441.561L441.241 279.54C441.241 278.927 441.148 278.413 440.961 278C440.788 277.587 440.528 277.273 440.181 277.06C439.848 276.833 439.428 276.72 438.921 276.72C438.361 276.72 437.881 276.853 437.481 277.12C437.094 277.373 436.794 277.74 436.581 278.22C436.381 278.687 436.281 279.247 436.281 279.9V280.04C436.281 281.133 436.534 281.953 437.041 282.5C437.561 283.033 438.321 283.3 439.321 283.3C439.668 283.3 440.054 283.26 440.481 283.18C440.921 283.087 441.334 282.933 441.721 282.72C442.001 282.56 442.248 282.493 442.461 282.52C442.674 282.533 442.841 282.607 442.961 282.74C443.094 282.873 443.174 283.04 443.201 283.24C443.228 283.427 443.188 283.62 443.081 283.82C442.988 284.02 442.821 284.193 442.581 284.34C442.114 284.633 441.574 284.853 440.961 285C440.361 285.133 439.801 285.2 439.281 285.2ZM449.561 288.8C448.841 288.8 448.141 288.733 447.461 288.6C446.794 288.467 446.187 288.26 445.641 287.98C445.387 287.847 445.214 287.687 445.121 287.5C445.041 287.313 445.014 287.12 445.041 286.92C445.081 286.733 445.161 286.567 445.281 286.42C445.414 286.273 445.574 286.173 445.761 286.12C445.947 286.067 446.141 286.093 446.341 286.2C446.927 286.493 447.481 286.68 448.001 286.76C448.534 286.853 448.987 286.9 449.361 286.9C450.254 286.9 450.921 286.68 451.361 286.24C451.814 285.813 452.041 285.173 452.041 284.32V282.52H452.221C452.021 283.2 451.601 283.747 450.961 284.16C450.334 284.56 449.621 284.76 448.821 284.76C447.941 284.76 447.174 284.56 446.521 284.16C445.867 283.747 445.361 283.173 445.001 282.44C444.641 281.707 444.461 280.853 444.461 279.88C444.461 279.147 444.561 278.487 444.761 277.9C444.974 277.3 445.267 276.787 445.641 276.36C446.027 275.933 446.487 275.607 447.021 275.38C447.567 275.14 448.167 275.02 448.821 275.02C449.647 275.02 450.367 275.227 450.981 275.64C451.607 276.04 452.014 276.573 452.201 277.24L452.001 277.74V276.32C452.001 275.907 452.107 275.593 452.321 275.38C452.547 275.167 452.854 275.06 453.241 275.06C453.641 275.06 453.947 275.167 454.161 275.38C454.374 275.593 454.481 275.907 454.481 276.32V284.02C454.481 285.607 454.061 286.8 453.221 287.6C452.381 288.4 451.161 288.8 449.561 288.8ZM449.501 282.86C450.021 282.86 450.467 282.74 450.841 282.5C451.214 282.26 451.501 281.92 451.701 281.48C451.914 281.027 452.021 280.493 452.021 279.88C452.021 278.96 451.794 278.24 451.341 277.72C450.887 277.187 450.274 276.92 449.501 276.92C448.981 276.92 448.534 277.04 448.161 277.28C447.787 277.52 447.494 277.86 447.281 278.3C447.081 278.74 446.981 279.267 446.981 279.88C446.981 280.8 447.207 281.527 447.661 282.06C448.114 282.593 448.727 282.86 449.501 282.86ZM459.991 285.2C459.284 285.2 458.651 285.067 458.091 284.8C457.544 284.52 457.111 284.147 456.791 283.68C456.484 283.213 456.331 282.687 456.331 282.1C456.331 281.38 456.518 280.813 456.891 280.4C457.264 279.973 457.871 279.667 458.711 279.48C459.551 279.293 460.678 279.2 462.091 279.2H463.091V280.64H462.111C461.284 280.64 460.624 280.68 460.131 280.76C459.638 280.84 459.284 280.98 459.071 281.18C458.871 281.367 458.771 281.633 458.771 281.98C458.771 282.42 458.924 282.78 459.231 283.06C459.538 283.34 459.964 283.48 460.511 283.48C460.951 283.48 461.338 283.38 461.671 283.18C462.018 282.967 462.291 282.68 462.491 282.32C462.691 281.96 462.791 281.547 462.791 281.08V278.78C462.791 278.113 462.644 277.633 462.351 277.34C462.058 277.047 461.564 276.9 460.871 276.9C460.484 276.9 460.064 276.947 459.611 277.04C459.171 277.133 458.704 277.293 458.211 277.52C457.958 277.64 457.731 277.673 457.531 277.62C457.344 277.567 457.198 277.46 457.091 277.3C456.984 277.127 456.931 276.94 456.931 276.74C456.931 276.54 456.984 276.347 457.091 276.16C457.198 275.96 457.378 275.813 457.631 275.72C458.244 275.467 458.831 275.287 459.391 275.18C459.964 275.073 460.484 275.02 460.951 275.02C461.911 275.02 462.698 275.167 463.311 275.46C463.938 275.753 464.404 276.2 464.711 276.8C465.018 277.387 465.171 278.147 465.171 279.08V283.88C465.171 284.293 465.071 284.613 464.871 284.84C464.671 285.053 464.384 285.16 464.011 285.16C463.638 285.16 463.344 285.053 463.131 284.84C462.931 284.613 462.831 284.293 462.831 283.88V282.92H462.991C462.898 283.387 462.711 283.793 462.431 284.14C462.164 284.473 461.824 284.733 461.411 284.92C460.998 285.107 460.524 285.2 459.991 285.2ZM471.889 285.2C471.022 285.2 470.295 285.053 469.709 284.76C469.135 284.467 468.709 284.04 468.429 283.48C468.149 282.907 468.009 282.2 468.009 281.36V277.1H466.969C466.649 277.1 466.402 277.02 466.229 276.86C466.055 276.687 465.969 276.453 465.969 276.16C465.969 275.853 466.055 275.62 466.229 275.46C466.402 275.3 466.649 275.22 466.969 275.22H468.009V273.4C468.009 272.987 468.115 272.673 468.329 272.46C468.555 272.247 468.869 272.14 469.269 272.14C469.669 272.14 469.975 272.247 470.189 272.46C470.402 272.673 470.509 272.987 470.509 273.4V275.22H472.629C472.949 275.22 473.195 275.3 473.369 275.46C473.542 275.62 473.629 275.853 473.629 276.16C473.629 276.453 473.542 276.687 473.369 276.86C473.195 277.02 472.949 277.1 472.629 277.1H470.509V281.22C470.509 281.86 470.649 282.34 470.929 282.66C471.209 282.98 471.662 283.14 472.289 283.14C472.515 283.14 472.715 283.12 472.889 283.08C473.062 283.04 473.215 283.013 473.349 283C473.509 282.987 473.642 283.04 473.749 283.16C473.855 283.267 473.909 283.493 473.909 283.84C473.909 284.107 473.862 284.347 473.769 284.56C473.689 284.76 473.535 284.9 473.309 284.98C473.135 285.033 472.909 285.08 472.629 285.12C472.349 285.173 472.102 285.2 471.889 285.2ZM476.278 285.14C475.878 285.14 475.572 285.02 475.358 284.78C475.145 284.54 475.038 284.207 475.038 283.78V276.44C475.038 276 475.145 275.667 475.358 275.44C475.572 275.2 475.878 275.08 476.278 275.08C476.678 275.08 476.985 275.2 477.198 275.44C477.425 275.667 477.538 276 477.538 276.44V283.78C477.538 284.207 477.432 284.54 477.218 284.78C477.005 285.02 476.692 285.14 476.278 285.14ZM476.278 273.22C475.812 273.22 475.445 273.107 475.178 272.88C474.925 272.64 474.798 272.313 474.798 271.9C474.798 271.473 474.925 271.147 475.178 270.92C475.445 270.693 475.812 270.58 476.278 270.58C476.758 270.58 477.125 270.693 477.378 270.92C477.632 271.147 477.758 271.473 477.758 271.9C477.758 272.313 477.632 272.64 477.378 272.88C477.125 273.107 476.758 273.22 476.278 273.22ZM483.796 285.16C483.463 285.16 483.169 285.073 482.916 284.9C482.676 284.727 482.476 284.46 482.316 284.1L479.136 276.72C479.016 276.427 478.969 276.153 478.996 275.9C479.036 275.647 479.156 275.447 479.356 275.3C479.569 275.14 479.856 275.06 480.216 275.06C480.523 275.06 480.769 275.133 480.956 275.28C481.143 275.413 481.309 275.673 481.456 276.06L484.156 282.8H483.556L486.336 276.04C486.483 275.667 486.649 275.413 486.836 275.28C487.036 275.133 487.303 275.06 487.636 275.06C487.929 275.06 488.163 275.14 488.336 275.3C488.509 275.447 488.616 275.647 488.656 275.9C488.696 276.14 488.649 276.407 488.516 276.7L485.276 284.1C485.129 284.46 484.929 284.727 484.676 284.9C484.436 285.073 484.143 285.16 483.796 285.16ZM494.708 285.2C493.601 285.2 492.648 284.993 491.848 284.58C491.048 284.167 490.428 283.58 489.988 282.82C489.561 282.06 489.348 281.16 489.348 280.12C489.348 279.107 489.554 278.22 489.968 277.46C490.394 276.7 490.974 276.107 491.708 275.68C492.454 275.24 493.301 275.02 494.248 275.02C494.941 275.02 495.561 275.133 496.108 275.36C496.668 275.587 497.141 275.913 497.528 276.34C497.928 276.767 498.228 277.287 498.428 277.9C498.641 278.5 498.748 279.18 498.748 279.94C498.748 280.18 498.661 280.367 498.488 280.5C498.328 280.62 498.094 280.68 497.788 280.68H491.368V279.24H496.988L496.668 279.54C496.668 278.927 496.574 278.413 496.388 278C496.214 277.587 495.954 277.273 495.608 277.06C495.274 276.833 494.854 276.72 494.348 276.72C493.788 276.72 493.308 276.853 492.908 277.12C492.521 277.373 492.221 277.74 492.008 278.22C491.808 278.687 491.708 279.247 491.708 279.9V280.04C491.708 281.133 491.961 281.953 492.468 282.5C492.988 283.033 493.748 283.3 494.748 283.3C495.094 283.3 495.481 283.26 495.908 283.18C496.348 283.087 496.761 282.933 497.148 282.72C497.428 282.56 497.674 282.493 497.888 282.52C498.101 282.533 498.268 282.607 498.388 282.74C498.521 282.873 498.601 283.04 498.628 283.24C498.654 283.427 498.614 283.62 498.508 283.82C498.414 284.02 498.248 284.193 498.008 284.34C497.541 284.633 497.001 284.853 496.388 285C495.788 285.133 495.228 285.2 494.708 285.2Z" fill="#BDBDBD"/>
<circle cx="399.5" cy="276" r="6" fill="white" stroke="#FF77E9" stroke-width="4"/>
<path d="M432.08 232.62C432.96 232.62 433.61 232.8 434.03 233.16C434.47 233.5 434.69 234.04 434.69 234.78C434.69 235.54 434.47 236.1 434.03 236.46C433.61 236.82 432.96 237 432.08 237H421.13C420.41 237 419.84 236.79 419.42 236.37C419 235.93 418.79 235.38 418.79 234.72C418.79 233.86 419.13 233.08 419.81 232.38L426.17 225.75C427.49 224.37 428.15 223.1 428.15 221.94C428.15 221.26 427.95 220.74 427.55 220.38C427.17 220.02 426.62 219.84 425.9 219.84C425.32 219.84 424.78 219.93 424.28 220.11C423.8 220.27 423.24 220.51 422.6 220.83L422 221.13C421.92 221.17 421.76 221.26 421.52 221.4C421.3 221.52 421.1 221.61 420.92 221.67C420.74 221.73 420.55 221.76 420.35 221.76C419.85 221.76 419.43 221.54 419.09 221.1C418.75 220.64 418.58 220.1 418.58 219.48C418.58 219.04 418.64 218.68 418.76 218.4C418.9 218.12 419.15 217.86 419.51 217.62C420.45 216.98 421.5 216.48 422.66 216.12C423.84 215.76 425 215.58 426.14 215.58C427.62 215.58 428.92 215.83 430.04 216.33C431.16 216.81 432.02 217.51 432.62 218.43C433.24 219.33 433.55 220.37 433.55 221.55C433.55 222.77 433.3 223.89 432.8 224.91C432.32 225.91 431.49 227.03 430.31 228.27L426.05 232.62H432.08ZM445.988 223.17C447.288 223.17 448.438 223.46 449.438 224.04C450.458 224.6 451.248 225.4 451.808 226.44C452.388 227.46 452.678 228.64 452.678 229.98C452.678 231.42 452.338 232.69 451.658 233.79C450.978 234.89 450.018 235.74 448.778 236.34C447.538 236.94 446.108 237.24 444.488 237.24C443.248 237.24 442.028 237.06 440.828 236.7C439.648 236.34 438.628 235.84 437.768 235.2C437.448 234.94 437.208 234.67 437.048 234.39C436.908 234.09 436.838 233.74 436.838 233.34C436.838 232.72 437.008 232.2 437.348 231.78C437.688 231.34 438.108 231.12 438.608 231.12C438.908 231.12 439.158 231.16 439.358 231.24C439.558 231.32 439.858 231.47 440.258 231.69L440.858 231.99C441.478 232.29 442.038 232.53 442.538 232.71C443.058 232.89 443.618 232.98 444.218 232.98C445.338 232.98 446.168 232.76 446.708 232.32C447.248 231.86 447.518 231.15 447.518 230.19C447.518 229.29 447.238 228.59 446.678 228.09C446.118 227.59 445.338 227.34 444.338 227.34C443.738 227.34 443.188 227.39 442.688 227.49C442.208 227.59 441.638 227.77 440.978 228.03C440.558 228.25 440.108 228.36 439.628 228.36C439.068 228.36 438.598 228.2 438.218 227.88C437.838 227.54 437.648 227.1 437.648 226.56V218.43C437.648 217.59 437.868 216.95 438.308 216.51C438.748 216.07 439.378 215.85 440.198 215.85H449.498C451.238 215.85 452.108 216.54 452.108 217.92C452.108 219.32 451.238 220.02 449.498 220.02H443.018V223.71C443.858 223.35 444.848 223.17 445.988 223.17ZM464.486 236.28C464.226 236.72 463.916 237.05 463.556 237.27C463.216 237.49 462.866 237.6 462.506 237.6C462.026 237.6 461.606 237.42 461.246 237.06C460.886 236.7 460.706 236.26 460.706 235.74C460.706 235.28 460.846 234.81 461.126 234.33L471.416 216.57C471.676 216.13 471.976 215.8 472.316 215.58C472.676 215.36 473.036 215.25 473.396 215.25C473.896 215.25 474.316 215.43 474.656 215.79C475.016 216.13 475.196 216.57 475.196 217.11C475.196 217.57 475.056 218.04 474.776 218.52L464.486 236.28ZM460.016 228.42C458.256 228.42 456.876 227.86 455.876 226.74C454.876 225.62 454.376 224.01 454.376 221.91C454.376 219.85 454.876 218.27 455.876 217.17C456.876 216.05 458.256 215.49 460.016 215.49C461.776 215.49 463.156 216.05 464.156 217.17C465.156 218.27 465.656 219.86 465.656 221.94C465.656 224.04 465.156 225.65 464.156 226.77C463.156 227.87 461.776 228.42 460.016 228.42ZM460.016 225.18C460.476 225.18 460.806 224.94 461.006 224.46C461.226 223.96 461.336 223.12 461.336 221.94C461.336 220.8 461.226 219.99 461.006 219.51C460.786 219.01 460.456 218.76 460.016 218.76C459.556 218.76 459.216 219.01 458.996 219.51C458.796 219.99 458.696 220.8 458.696 221.94C458.696 223.12 458.796 223.96 458.996 224.46C459.216 224.94 459.556 225.18 460.016 225.18ZM475.886 237.21C474.126 237.21 472.746 236.65 471.746 235.53C470.746 234.41 470.246 232.8 470.246 230.7C470.246 228.64 470.746 227.06 471.746 225.96C472.746 224.84 474.126 224.28 475.886 224.28C477.646 224.28 479.026 224.84 480.026 225.96C481.026 227.06 481.526 228.65 481.526 230.73C481.526 232.83 481.026 234.44 480.026 235.56C479.026 236.66 477.646 237.21 475.886 237.21ZM475.886 233.97C476.346 233.97 476.676 233.73 476.876 233.25C477.096 232.75 477.206 231.91 477.206 230.73C477.206 229.59 477.096 228.77 476.876 228.27C476.656 227.77 476.326 227.52 475.886 227.52C475.426 227.52 475.086 227.77 474.866 228.27C474.666 228.75 474.566 229.57 474.566 230.73C474.566 231.91 474.666 232.75 474.866 233.25C475.086 233.73 475.426 233.97 475.886 233.97Z" fill="#242331"/>
<path d="M421.32 203.16C420.907 203.16 420.587 203.047 420.36 202.82C420.147 202.58 420.04 202.253 420.04 201.84V190.2C420.04 189.773 420.153 189.453 420.38 189.24C420.607 189.013 420.927 188.9 421.34 188.9H426.16C427.707 188.9 428.9 189.287 429.74 190.06C430.58 190.833 431 191.913 431 193.3C431 194.687 430.58 195.773 429.74 196.56C428.9 197.333 427.707 197.72 426.16 197.72H422.6V201.84C422.6 202.253 422.493 202.58 422.28 202.82C422.067 203.047 421.747 203.16 421.32 203.16ZM422.6 195.7H425.76C426.667 195.7 427.353 195.5 427.82 195.1C428.287 194.687 428.52 194.087 428.52 193.3C428.52 192.513 428.287 191.92 427.82 191.52C427.353 191.12 426.667 190.92 425.76 190.92H422.6V195.7ZM436.519 203.2C435.505 203.2 434.625 202.993 433.879 202.58C433.132 202.167 432.552 201.58 432.139 200.82C431.725 200.047 431.519 199.14 431.519 198.1C431.519 197.313 431.632 196.613 431.859 196C432.099 195.373 432.439 194.84 432.879 194.4C433.319 193.947 433.845 193.607 434.459 193.38C435.072 193.14 435.759 193.02 436.519 193.02C437.532 193.02 438.412 193.227 439.159 193.64C439.905 194.053 440.485 194.64 440.899 195.4C441.312 196.16 441.519 197.06 441.519 198.1C441.519 198.887 441.399 199.593 441.159 200.22C440.932 200.847 440.599 201.387 440.159 201.84C439.719 202.28 439.192 202.62 438.579 202.86C437.965 203.087 437.279 203.2 436.519 203.2ZM436.519 201.3C437.012 201.3 437.445 201.18 437.819 200.94C438.192 200.7 438.479 200.347 438.679 199.88C438.892 199.4 438.999 198.807 438.999 198.1C438.999 197.033 438.772 196.24 438.319 195.72C437.865 195.187 437.265 194.92 436.519 194.92C436.025 194.92 435.592 195.04 435.219 195.28C434.845 195.507 434.552 195.86 434.339 196.34C434.139 196.807 434.039 197.393 434.039 198.1C434.039 199.153 434.265 199.953 434.719 200.5C435.172 201.033 435.772 201.3 436.519 201.3ZM446.862 203.2C446.289 203.2 445.682 203.14 445.042 203.02C444.402 202.9 443.829 202.693 443.322 202.4C443.109 202.267 442.955 202.113 442.862 201.94C442.782 201.753 442.749 201.573 442.762 201.4C442.789 201.213 442.855 201.053 442.962 200.92C443.082 200.787 443.229 200.7 443.402 200.66C443.589 200.62 443.789 200.653 444.002 200.76C444.535 201.013 445.035 201.193 445.502 201.3C445.969 201.393 446.429 201.44 446.882 201.44C447.522 201.44 447.995 201.333 448.302 201.12C448.622 200.893 448.782 200.6 448.782 200.24C448.782 199.933 448.675 199.7 448.462 199.54C448.262 199.367 447.955 199.24 447.542 199.16L445.542 198.78C444.715 198.62 444.082 198.32 443.642 197.88C443.215 197.427 443.002 196.847 443.002 196.14C443.002 195.5 443.175 194.947 443.522 194.48C443.882 194.013 444.375 193.653 445.002 193.4C445.629 193.147 446.349 193.02 447.162 193.02C447.749 193.02 448.295 193.087 448.802 193.22C449.322 193.34 449.822 193.533 450.302 193.8C450.502 193.907 450.635 194.047 450.702 194.22C450.782 194.393 450.802 194.573 450.762 194.76C450.722 194.933 450.642 195.093 450.522 195.24C450.402 195.373 450.249 195.46 450.062 195.5C449.889 195.527 449.689 195.487 449.462 195.38C449.049 195.167 448.649 195.013 448.262 194.92C447.889 194.827 447.529 194.78 447.182 194.78C446.529 194.78 446.042 194.893 445.722 195.12C445.415 195.347 445.262 195.647 445.262 196.02C445.262 196.3 445.355 196.533 445.542 196.72C445.729 196.907 446.015 197.033 446.402 197.1L448.402 197.48C449.269 197.64 449.922 197.933 450.362 198.36C450.815 198.787 451.042 199.36 451.042 200.08C451.042 201.053 450.662 201.82 449.902 202.38C449.142 202.927 448.129 203.2 446.862 203.2ZM453.988 203.14C453.588 203.14 453.281 203.02 453.068 202.78C452.854 202.54 452.748 202.207 452.748 201.78V194.44C452.748 194 452.854 193.667 453.068 193.44C453.281 193.2 453.588 193.08 453.988 193.08C454.388 193.08 454.694 193.2 454.908 193.44C455.134 193.667 455.248 194 455.248 194.44V201.78C455.248 202.207 455.141 202.54 454.928 202.78C454.714 203.02 454.401 203.14 453.988 203.14ZM453.988 191.22C453.521 191.22 453.154 191.107 452.888 190.88C452.634 190.64 452.508 190.313 452.508 189.9C452.508 189.473 452.634 189.147 452.888 188.92C453.154 188.693 453.521 188.58 453.988 188.58C454.468 188.58 454.834 188.693 455.088 188.92C455.341 189.147 455.468 189.473 455.468 189.9C455.468 190.313 455.341 190.64 455.088 190.88C454.834 191.107 454.468 191.22 453.988 191.22ZM462.025 203.2C461.159 203.2 460.432 203.053 459.845 202.76C459.272 202.467 458.845 202.04 458.565 201.48C458.285 200.907 458.145 200.2 458.145 199.36V195.1H457.105C456.785 195.1 456.539 195.02 456.365 194.86C456.192 194.687 456.105 194.453 456.105 194.16C456.105 193.853 456.192 193.62 456.365 193.46C456.539 193.3 456.785 193.22 457.105 193.22H458.145V191.4C458.145 190.987 458.252 190.673 458.465 190.46C458.692 190.247 459.005 190.14 459.405 190.14C459.805 190.14 460.112 190.247 460.325 190.46C460.539 190.673 460.645 190.987 460.645 191.4V193.22H462.765C463.085 193.22 463.332 193.3 463.505 193.46C463.679 193.62 463.765 193.853 463.765 194.16C463.765 194.453 463.679 194.687 463.505 194.86C463.332 195.02 463.085 195.1 462.765 195.1H460.645V199.22C460.645 199.86 460.785 200.34 461.065 200.66C461.345 200.98 461.799 201.14 462.425 201.14C462.652 201.14 462.852 201.12 463.025 201.08C463.199 201.04 463.352 201.013 463.485 201C463.645 200.987 463.779 201.04 463.885 201.16C463.992 201.267 464.045 201.493 464.045 201.84C464.045 202.107 463.999 202.347 463.905 202.56C463.825 202.76 463.672 202.9 463.445 202.98C463.272 203.033 463.045 203.08 462.765 203.12C462.485 203.173 462.239 203.2 462.025 203.2ZM466.415 203.14C466.015 203.14 465.708 203.02 465.495 202.78C465.282 202.54 465.175 202.207 465.175 201.78V194.44C465.175 194 465.282 193.667 465.495 193.44C465.708 193.2 466.015 193.08 466.415 193.08C466.815 193.08 467.122 193.2 467.335 193.44C467.562 193.667 467.675 194 467.675 194.44V201.78C467.675 202.207 467.568 202.54 467.355 202.78C467.142 203.02 466.828 203.14 466.415 203.14ZM466.415 191.22C465.948 191.22 465.582 191.107 465.315 190.88C465.062 190.64 464.935 190.313 464.935 189.9C464.935 189.473 465.062 189.147 465.315 188.92C465.582 188.693 465.948 188.58 466.415 188.58C466.895 188.58 467.262 188.693 467.515 188.92C467.768 189.147 467.895 189.473 467.895 189.9C467.895 190.313 467.768 190.64 467.515 190.88C467.262 191.107 466.895 191.22 466.415 191.22ZM473.933 203.16C473.599 203.16 473.306 203.073 473.053 202.9C472.813 202.727 472.613 202.46 472.453 202.1L469.273 194.72C469.153 194.427 469.106 194.153 469.133 193.9C469.173 193.647 469.293 193.447 469.493 193.3C469.706 193.14 469.993 193.06 470.353 193.06C470.659 193.06 470.906 193.133 471.093 193.28C471.279 193.413 471.446 193.673 471.593 194.06L474.293 200.8H473.693L476.473 194.04C476.619 193.667 476.786 193.413 476.973 193.28C477.173 193.133 477.439 193.06 477.773 193.06C478.066 193.06 478.299 193.14 478.473 193.3C478.646 193.447 478.753 193.647 478.793 193.9C478.833 194.14 478.786 194.407 478.653 194.7L475.413 202.1C475.266 202.46 475.066 202.727 474.813 202.9C474.573 203.073 474.279 203.16 473.933 203.16ZM484.844 203.2C483.738 203.2 482.784 202.993 481.984 202.58C481.184 202.167 480.564 201.58 480.124 200.82C479.698 200.06 479.484 199.16 479.484 198.12C479.484 197.107 479.691 196.22 480.104 195.46C480.531 194.7 481.111 194.107 481.844 193.68C482.591 193.24 483.438 193.02 484.384 193.02C485.078 193.02 485.698 193.133 486.244 193.36C486.804 193.587 487.278 193.913 487.664 194.34C488.064 194.767 488.364 195.287 488.564 195.9C488.778 196.5 488.884 197.18 488.884 197.94C488.884 198.18 488.798 198.367 488.624 198.5C488.464 198.62 488.231 198.68 487.924 198.68H481.504V197.24H487.124L486.804 197.54C486.804 196.927 486.711 196.413 486.524 196C486.351 195.587 486.091 195.273 485.744 195.06C485.411 194.833 484.991 194.72 484.484 194.72C483.924 194.72 483.444 194.853 483.044 195.12C482.658 195.373 482.358 195.74 482.144 196.22C481.944 196.687 481.844 197.247 481.844 197.9V198.04C481.844 199.133 482.098 199.953 482.604 200.5C483.124 201.033 483.884 201.3 484.884 201.3C485.231 201.3 485.618 201.26 486.044 201.18C486.484 201.087 486.898 200.933 487.284 200.72C487.564 200.56 487.811 200.493 488.024 200.52C488.238 200.533 488.404 200.607 488.524 200.74C488.658 200.873 488.738 201.04 488.764 201.24C488.791 201.427 488.751 201.62 488.644 201.82C488.551 202.02 488.384 202.193 488.144 202.34C487.678 202.633 487.138 202.853 486.524 203C485.924 203.133 485.364 203.2 484.844 203.2Z" fill="#BDBDBD"/>
<circle cx="399.5" cy="194" r="6" fill="white" stroke="#704CFF" stroke-width="4"/>
<path d="M432.86 151.62C433.76 151.62 434.42 151.8 434.84 152.16C435.26 152.52 435.47 153.06 435.47 153.78C435.47 155.26 434.6 156 432.86 156H422.45C420.71 156 419.84 155.26 419.84 153.78C419.84 153.06 420.05 152.52 420.47 152.16C420.89 151.8 421.55 151.62 422.45 151.62H424.88V140.79L422.48 142.2C422.14 142.4 421.79 142.5 421.43 142.5C420.87 142.5 420.39 142.26 419.99 141.78C419.59 141.28 419.39 140.73 419.39 140.13C419.39 139.31 419.74 138.69 420.44 138.27L425.24 135.48C426.12 134.98 426.95 134.73 427.73 134.73C428.53 134.73 429.17 134.97 429.65 135.45C430.15 135.93 430.4 136.58 430.4 137.4V151.62H432.86ZM444.488 156.27C441.868 156.27 439.868 155.34 438.488 153.48C437.108 151.62 436.418 148.93 436.418 145.41C436.418 141.91 437.108 139.23 438.488 137.37C439.868 135.51 441.868 134.58 444.488 134.58C447.088 134.58 449.078 135.51 450.458 137.37C451.858 139.23 452.558 141.91 452.558 145.41C452.558 148.93 451.868 151.62 450.488 153.48C449.108 155.34 447.108 156.27 444.488 156.27ZM444.488 152.1C445.448 152.1 446.138 151.58 446.558 150.54C446.978 149.5 447.188 147.79 447.188 145.41C447.188 143.05 446.978 141.35 446.558 140.31C446.138 139.27 445.448 138.75 444.488 138.75C443.528 138.75 442.838 139.27 442.418 140.31C441.998 141.33 441.788 143.03 441.788 145.41C441.788 147.79 441.998 149.5 442.418 150.54C442.838 151.58 443.528 152.1 444.488 152.1ZM464.457 155.28C464.197 155.72 463.887 156.05 463.527 156.27C463.187 156.49 462.837 156.6 462.477 156.6C461.997 156.6 461.577 156.42 461.217 156.06C460.857 155.7 460.677 155.26 460.677 154.74C460.677 154.28 460.817 153.81 461.097 153.33L471.387 135.57C471.647 135.13 471.947 134.8 472.287 134.58C472.647 134.36 473.007 134.25 473.367 134.25C473.867 134.25 474.287 134.43 474.627 134.79C474.987 135.13 475.167 135.57 475.167 136.11C475.167 136.57 475.027 137.04 474.747 137.52L464.457 155.28ZM459.987 147.42C458.227 147.42 456.847 146.86 455.847 145.74C454.847 144.62 454.347 143.01 454.347 140.91C454.347 138.85 454.847 137.27 455.847 136.17C456.847 135.05 458.227 134.49 459.987 134.49C461.747 134.49 463.127 135.05 464.127 136.17C465.127 137.27 465.627 138.86 465.627 140.94C465.627 143.04 465.127 144.65 464.127 145.77C463.127 146.87 461.747 147.42 459.987 147.42ZM459.987 144.18C460.447 144.18 460.777 143.94 460.977 143.46C461.197 142.96 461.307 142.12 461.307 140.94C461.307 139.8 461.197 138.99 460.977 138.51C460.757 138.01 460.427 137.76 459.987 137.76C459.527 137.76 459.187 138.01 458.967 138.51C458.767 138.99 458.667 139.8 458.667 140.94C458.667 142.12 458.767 142.96 458.967 143.46C459.187 143.94 459.527 144.18 459.987 144.18ZM475.857 156.21C474.097 156.21 472.717 155.65 471.717 154.53C470.717 153.41 470.217 151.8 470.217 149.7C470.217 147.64 470.717 146.06 471.717 144.96C472.717 143.84 474.097 143.28 475.857 143.28C477.617 143.28 478.997 143.84 479.997 144.96C480.997 146.06 481.497 147.65 481.497 149.73C481.497 151.83 480.997 153.44 479.997 154.56C478.997 155.66 477.617 156.21 475.857 156.21ZM475.857 152.97C476.317 152.97 476.647 152.73 476.847 152.25C477.067 151.75 477.177 150.91 477.177 149.73C477.177 148.59 477.067 147.77 476.847 147.27C476.627 146.77 476.297 146.52 475.857 146.52C475.397 146.52 475.057 146.77 474.837 147.27C474.637 147.75 474.537 148.57 474.537 149.73C474.537 150.91 474.637 151.75 474.837 152.25C475.057 152.73 475.397 152.97 475.857 152.97Z" fill="#242331"/>
<path d="M421.24 122.16C420.853 122.16 420.553 122.053 420.34 121.84C420.14 121.627 420.04 121.32 420.04 120.92V109.02C420.04 108.607 420.14 108.293 420.34 108.08C420.553 107.853 420.827 107.74 421.16 107.74C421.467 107.74 421.693 107.8 421.84 107.92C422 108.027 422.187 108.213 422.4 108.48L430.06 118.42H429.54V108.96C429.54 108.573 429.64 108.273 429.84 108.06C430.053 107.847 430.353 107.74 430.74 107.74C431.127 107.74 431.42 107.847 431.62 108.06C431.82 108.273 431.92 108.573 431.92 108.96V120.96C431.92 121.333 431.827 121.627 431.64 121.84C431.453 122.053 431.2 122.16 430.88 122.16C430.573 122.16 430.327 122.1 430.14 121.98C429.967 121.86 429.773 121.667 429.56 121.4L421.92 111.46H422.42V120.92C422.42 121.32 422.32 121.627 422.12 121.84C421.92 122.053 421.627 122.16 421.24 122.16ZM439.281 122.2C438.174 122.2 437.221 121.993 436.421 121.58C435.621 121.167 435.001 120.58 434.561 119.82C434.134 119.06 433.921 118.16 433.921 117.12C433.921 116.107 434.128 115.22 434.541 114.46C434.968 113.7 435.548 113.107 436.281 112.68C437.028 112.24 437.874 112.02 438.821 112.02C439.514 112.02 440.134 112.133 440.681 112.36C441.241 112.587 441.714 112.913 442.101 113.34C442.501 113.767 442.801 114.287 443.001 114.9C443.214 115.5 443.321 116.18 443.321 116.94C443.321 117.18 443.234 117.367 443.061 117.5C442.901 117.62 442.668 117.68 442.361 117.68H435.941V116.24H441.561L441.241 116.54C441.241 115.927 441.148 115.413 440.961 115C440.788 114.587 440.528 114.273 440.181 114.06C439.848 113.833 439.428 113.72 438.921 113.72C438.361 113.72 437.881 113.853 437.481 114.12C437.094 114.373 436.794 114.74 436.581 115.22C436.381 115.687 436.281 116.247 436.281 116.9V117.04C436.281 118.133 436.534 118.953 437.041 119.5C437.561 120.033 438.321 120.3 439.321 120.3C439.668 120.3 440.054 120.26 440.481 120.18C440.921 120.087 441.334 119.933 441.721 119.72C442.001 119.56 442.248 119.493 442.461 119.52C442.674 119.533 442.841 119.607 442.961 119.74C443.094 119.873 443.174 120.04 443.201 120.24C443.228 120.427 443.188 120.62 443.081 120.82C442.988 121.02 442.821 121.193 442.581 121.34C442.114 121.633 441.574 121.853 440.961 122C440.361 122.133 439.801 122.2 439.281 122.2ZM448.541 122.2C447.727 122.2 447.054 122.053 446.521 121.76C445.987 121.453 445.587 121 445.321 120.4C445.067 119.8 444.941 119.053 444.941 118.16V113.32C444.941 112.893 445.047 112.58 445.261 112.38C445.474 112.167 445.781 112.06 446.181 112.06C446.581 112.06 446.887 112.167 447.101 112.38C447.327 112.58 447.441 112.893 447.441 113.32V118.2C447.441 118.893 447.581 119.407 447.861 119.74C448.141 120.073 448.587 120.24 449.201 120.24C449.867 120.24 450.414 120.013 450.841 119.56C451.267 119.093 451.481 118.48 451.481 117.72V113.32C451.481 112.893 451.587 112.58 451.801 112.38C452.014 112.167 452.321 112.06 452.721 112.06C453.121 112.06 453.427 112.167 453.641 112.38C453.867 112.58 453.981 112.893 453.981 113.32V120.88C453.981 121.733 453.574 122.16 452.761 122.16C452.374 122.16 452.074 122.053 451.861 121.84C451.647 121.613 451.541 121.293 451.541 120.88V119.36L451.821 119.96C451.541 120.68 451.114 121.233 450.541 121.62C449.981 122.007 449.314 122.2 448.541 122.2ZM460.763 122.2C459.896 122.2 459.169 122.053 458.583 121.76C458.009 121.467 457.583 121.04 457.303 120.48C457.023 119.907 456.883 119.2 456.883 118.36V114.1H455.843C455.523 114.1 455.276 114.02 455.103 113.86C454.929 113.687 454.843 113.453 454.843 113.16C454.843 112.853 454.929 112.62 455.103 112.46C455.276 112.3 455.523 112.22 455.843 112.22H456.883V110.4C456.883 109.987 456.989 109.673 457.203 109.46C457.429 109.247 457.743 109.14 458.143 109.14C458.543 109.14 458.849 109.247 459.063 109.46C459.276 109.673 459.383 109.987 459.383 110.4V112.22H461.503C461.823 112.22 462.069 112.3 462.243 112.46C462.416 112.62 462.503 112.853 462.503 113.16C462.503 113.453 462.416 113.687 462.243 113.86C462.069 114.02 461.823 114.1 461.503 114.1H459.383V118.22C459.383 118.86 459.523 119.34 459.803 119.66C460.083 119.98 460.536 120.14 461.163 120.14C461.389 120.14 461.589 120.12 461.763 120.08C461.936 120.04 462.089 120.013 462.223 120C462.383 119.987 462.516 120.04 462.623 120.16C462.729 120.267 462.783 120.493 462.783 120.84C462.783 121.107 462.736 121.347 462.643 121.56C462.563 121.76 462.409 121.9 462.183 121.98C462.009 122.033 461.783 122.08 461.503 122.12C461.223 122.173 460.976 122.2 460.763 122.2ZM464.939 122.16C464.525 122.16 464.205 122.053 463.979 121.84C463.765 121.613 463.659 121.293 463.659 120.88V113.32C463.659 112.907 463.765 112.593 463.979 112.38C464.192 112.167 464.492 112.06 464.879 112.06C465.265 112.06 465.565 112.167 465.779 112.38C465.992 112.593 466.099 112.907 466.099 113.32V114.58H465.899C466.085 113.78 466.452 113.173 466.999 112.76C467.545 112.347 468.272 112.1 469.179 112.02C469.459 111.993 469.679 112.067 469.839 112.24C470.012 112.4 470.112 112.653 470.139 113C470.165 113.333 470.085 113.607 469.899 113.82C469.725 114.02 469.459 114.14 469.099 114.18L468.659 114.22C467.845 114.3 467.232 114.553 466.819 114.98C466.405 115.393 466.199 115.98 466.199 116.74V120.88C466.199 121.293 466.092 121.613 465.879 121.84C465.665 122.053 465.352 122.16 464.939 122.16ZM474.313 122.2C473.606 122.2 472.973 122.067 472.413 121.8C471.866 121.52 471.433 121.147 471.113 120.68C470.806 120.213 470.653 119.687 470.653 119.1C470.653 118.38 470.84 117.813 471.213 117.4C471.586 116.973 472.193 116.667 473.033 116.48C473.873 116.293 475 116.2 476.413 116.2H477.413V117.64H476.433C475.606 117.64 474.946 117.68 474.453 117.76C473.96 117.84 473.606 117.98 473.393 118.18C473.193 118.367 473.093 118.633 473.093 118.98C473.093 119.42 473.246 119.78 473.553 120.06C473.86 120.34 474.286 120.48 474.833 120.48C475.273 120.48 475.66 120.38 475.993 120.18C476.34 119.967 476.613 119.68 476.813 119.32C477.013 118.96 477.113 118.547 477.113 118.08V115.78C477.113 115.113 476.966 114.633 476.673 114.34C476.38 114.047 475.886 113.9 475.193 113.9C474.806 113.9 474.386 113.947 473.933 114.04C473.493 114.133 473.026 114.293 472.533 114.52C472.28 114.64 472.053 114.673 471.853 114.62C471.666 114.567 471.52 114.46 471.413 114.3C471.306 114.127 471.253 113.94 471.253 113.74C471.253 113.54 471.306 113.347 471.413 113.16C471.52 112.96 471.7 112.813 471.953 112.72C472.566 112.467 473.153 112.287 473.713 112.18C474.286 112.073 474.806 112.02 475.273 112.02C476.233 112.02 477.02 112.167 477.633 112.46C478.26 112.753 478.726 113.2 479.033 113.8C479.34 114.387 479.493 115.147 479.493 116.08V120.88C479.493 121.293 479.393 121.613 479.193 121.84C478.993 122.053 478.706 122.16 478.333 122.16C477.96 122.16 477.666 122.053 477.453 121.84C477.253 121.613 477.153 121.293 477.153 120.88V119.92H477.313C477.22 120.387 477.033 120.793 476.753 121.14C476.486 121.473 476.146 121.733 475.733 121.92C475.32 122.107 474.846 122.2 474.313 122.2ZM485.07 122.2C483.964 122.2 483.13 121.887 482.57 121.26C482.01 120.62 481.73 119.687 481.73 118.46V109C481.73 108.587 481.837 108.273 482.05 108.06C482.264 107.847 482.57 107.74 482.97 107.74C483.37 107.74 483.677 107.847 483.89 108.06C484.117 108.273 484.23 108.587 484.23 109V118.34C484.23 118.953 484.357 119.407 484.61 119.7C484.877 119.993 485.25 120.14 485.73 120.14C485.837 120.14 485.937 120.14 486.03 120.14C486.124 120.127 486.217 120.113 486.31 120.1C486.497 120.073 486.624 120.127 486.69 120.26C486.757 120.38 486.79 120.633 486.79 121.02C486.79 121.353 486.724 121.613 486.59 121.8C486.457 121.987 486.237 122.1 485.93 122.14C485.797 122.153 485.657 122.167 485.51 122.18C485.364 122.193 485.217 122.2 485.07 122.2Z" fill="#BDBDBD"/>
<circle cx="399.5" cy="113" r="6" fill="white" stroke="#FFC700" stroke-width="4"/>
<path d="M217.014 131.816V189.565C259.415 189.565 293.819 223.964 293.819 266.422C293.819 308.852 259.443 343.279 217.014 343.279C174.585 343.279 140.21 308.88 140.21 266.422C140.21 250.105 145.332 235.013 153.983 222.569H153.954L101.85 196.827C89.5572 217.13 82.5 240.936 82.5 266.394C82.5 340.716 142.714 401 217.014 401C291.286 401 351.528 340.745 351.528 266.394C351.5 192.071 291.286 131.816 217.014 131.816Z" fill="#29F0A8"/>
<path d="M90.3828 176.011L142.487 201.725H142.515C156.402 181.791 179.423 168.721 205.547 168.721V111C156.715 111 113.945 137.056 90.3828 176.011Z" fill="#FFC700"/>
<path d="M351.5 266.394C351.5 241.876 344.927 218.896 333.459 199.105H254.065C277.741 212.204 293.819 237.405 293.819 266.394C293.819 308.823 259.443 343.251 217.015 343.251V401C291.286 401 351.5 340.745 351.5 266.394Z" fill="#704DFF"/>
<path d="M217.015 131.816V189.565C259.415 189.565 293.819 223.964 293.819 266.422H351.529C351.5 192.071 291.286 131.816 217.015 131.816Z" fill="#FF77E9"/>
<path d="M187.525 262.18C186.085 262.18 184.832 261.887 183.765 261.3C182.712 260.7 181.898 259.86 181.325 258.78C180.752 257.687 180.465 256.407 180.465 254.94C180.465 253.473 180.752 252.2 181.325 251.12C181.898 250.027 182.712 249.187 183.765 248.6C184.832 248.013 186.085 247.72 187.525 247.72C188.965 247.72 190.212 248.013 191.265 248.6C192.332 249.187 193.145 250.027 193.705 251.12C194.278 252.2 194.565 253.473 194.565 254.94C194.565 256.407 194.278 257.687 193.705 258.78C193.132 259.86 192.312 260.7 191.245 261.3C190.192 261.887 188.952 262.18 187.525 262.18ZM187.525 259.36C188.592 259.36 189.425 258.987 190.025 258.24C190.625 257.48 190.925 256.38 190.925 254.94C190.925 253.5 190.618 252.407 190.005 251.66C189.405 250.913 188.578 250.54 187.525 250.54C186.458 250.54 185.625 250.913 185.025 251.66C184.425 252.393 184.125 253.487 184.125 254.94C184.125 256.393 184.425 257.493 185.025 258.24C185.625 258.987 186.458 259.36 187.525 259.36ZM203.083 252.96C203.23 252.627 203.43 252.38 203.683 252.22C203.95 252.06 204.236 251.98 204.543 251.98C204.983 251.98 205.37 252.127 205.703 252.42C206.05 252.713 206.223 253.067 206.223 253.48C206.223 253.707 206.17 253.927 206.063 254.14L202.563 261.1C202.403 261.433 202.17 261.693 201.863 261.88C201.57 262.053 201.243 262.14 200.883 262.14C200.523 262.14 200.19 262.053 199.883 261.88C199.576 261.693 199.343 261.433 199.183 261.1L195.683 254.14C195.576 253.9 195.523 253.687 195.523 253.5C195.523 253.073 195.703 252.713 196.063 252.42C196.436 252.113 196.863 251.96 197.343 251.96C197.663 251.96 197.956 252.047 198.223 252.22C198.503 252.38 198.716 252.627 198.863 252.96L200.983 257.54L203.083 252.96ZM215.108 258.84C215.415 258.84 215.662 258.96 215.848 259.2C216.048 259.44 216.148 259.753 216.148 260.14C216.148 260.673 215.888 261.08 215.368 261.36C214.915 261.587 214.375 261.78 213.748 261.94C213.135 262.087 212.568 262.16 212.048 262.16C210.955 262.16 210.002 261.953 209.188 261.54C208.375 261.127 207.748 260.533 207.308 259.76C206.868 258.987 206.648 258.08 206.648 257.04C206.648 256.053 206.855 255.173 207.268 254.4C207.695 253.613 208.282 253.007 209.028 252.58C209.788 252.14 210.642 251.92 211.588 251.92C212.508 251.92 213.315 252.12 214.008 252.52C214.702 252.92 215.235 253.487 215.608 254.22C215.995 254.953 216.188 255.813 216.188 256.8C216.188 257.107 216.115 257.347 215.968 257.52C215.835 257.68 215.635 257.76 215.368 257.76H210.088C210.182 258.4 210.388 258.86 210.708 259.14C211.028 259.42 211.502 259.56 212.128 259.56C212.462 259.56 212.768 259.527 213.048 259.46C213.328 259.38 213.642 259.273 213.988 259.14C214.188 259.06 214.382 258.993 214.568 258.94C214.768 258.873 214.948 258.84 215.108 258.84ZM211.688 254.32C211.222 254.32 210.848 254.473 210.568 254.78C210.288 255.073 210.122 255.507 210.068 256.08H213.208C213.128 254.907 212.622 254.32 211.688 254.32ZM224.051 251.96C224.505 251.92 224.865 252.027 225.131 252.28C225.398 252.52 225.531 252.88 225.531 253.36C225.531 253.893 225.405 254.28 225.151 254.52C224.911 254.76 224.471 254.913 223.831 254.98L223.231 255.04C222.565 255.12 222.085 255.333 221.791 255.68C221.511 256.013 221.371 256.473 221.371 257.06V260.48C221.371 261.027 221.198 261.44 220.851 261.72C220.518 261.987 220.098 262.12 219.591 262.12C219.085 262.12 218.658 261.987 218.311 261.72C217.978 261.44 217.811 261.027 217.811 260.48V253.56C217.811 253.053 217.978 252.66 218.311 252.38C218.658 252.1 219.071 251.96 219.551 251.96C220.045 251.96 220.438 252.093 220.731 252.36C221.038 252.627 221.191 253 221.191 253.48V253.86C221.405 253.273 221.751 252.82 222.231 252.5C222.725 252.18 223.238 252.007 223.771 251.98L224.051 251.96ZM230.79 251.92C232.31 251.92 233.43 252.287 234.15 253.02C234.883 253.74 235.25 254.84 235.25 256.32V260.5C235.25 261.007 235.097 261.407 234.79 261.7C234.497 261.98 234.083 262.12 233.55 262.12C233.083 262.12 232.697 261.987 232.39 261.72C232.097 261.453 231.937 261.093 231.91 260.64C231.723 261.12 231.41 261.493 230.97 261.76C230.53 262.027 230.003 262.16 229.39 262.16C228.71 262.16 228.097 262.027 227.55 261.76C227.003 261.48 226.57 261.1 226.25 260.62C225.943 260.127 225.79 259.573 225.79 258.96C225.79 258.253 225.97 257.693 226.33 257.28C226.703 256.853 227.29 256.547 228.09 256.36C228.89 256.173 229.97 256.08 231.33 256.08H231.87V255.84C231.87 255.373 231.763 255.04 231.55 254.84C231.337 254.627 230.977 254.52 230.47 254.52C229.923 254.52 229.123 254.707 228.07 255.08C227.763 255.187 227.503 255.24 227.29 255.24C226.957 255.24 226.69 255.12 226.49 254.88C226.29 254.64 226.19 254.327 226.19 253.94C226.19 253.647 226.25 253.407 226.37 253.22C226.49 253.033 226.683 252.867 226.95 252.72C227.417 252.48 228.003 252.287 228.71 252.14C229.417 251.993 230.11 251.92 230.79 251.92ZM230.23 259.78C230.71 259.78 231.103 259.613 231.41 259.28C231.717 258.933 231.87 258.493 231.87 257.96V257.72H231.55C230.697 257.72 230.09 257.8 229.73 257.96C229.37 258.107 229.19 258.36 229.19 258.72C229.19 259.027 229.283 259.28 229.47 259.48C229.67 259.68 229.923 259.78 230.23 259.78ZM239.025 262.12C238.518 262.12 238.092 261.987 237.745 261.72C237.412 261.44 237.245 261.027 237.245 260.48V249.46C237.245 248.913 237.412 248.5 237.745 248.22C238.092 247.94 238.518 247.8 239.025 247.8C239.532 247.8 239.952 247.94 240.285 248.22C240.632 248.5 240.805 248.913 240.805 249.46V260.48C240.805 261.027 240.632 261.44 240.285 261.72C239.952 261.987 239.532 262.12 239.025 262.12ZM244.65 262.12C244.143 262.12 243.717 261.987 243.37 261.72C243.037 261.44 242.87 261.027 242.87 260.48V249.46C242.87 248.913 243.037 248.5 243.37 248.22C243.717 247.94 244.143 247.8 244.65 247.8C245.157 247.8 245.577 247.94 245.91 248.22C246.257 248.5 246.43 248.913 246.43 249.46V260.48C246.43 261.027 246.257 261.44 245.91 261.72C245.577 261.987 245.157 262.12 244.65 262.12ZM196.113 286.08C196.713 286.08 197.153 286.2 197.433 286.44C197.713 286.68 197.853 287.04 197.853 287.52C197.853 288.507 197.273 289 196.113 289H189.173C188.013 289 187.433 288.507 187.433 287.52C187.433 287.04 187.573 286.68 187.853 286.44C188.133 286.2 188.573 286.08 189.173 286.08H190.793V278.86L189.193 279.8C188.966 279.933 188.733 280 188.493 280C188.12 280 187.8 279.84 187.533 279.52C187.266 279.187 187.133 278.82 187.133 278.42C187.133 277.873 187.366 277.46 187.833 277.18L191.033 275.32C191.62 274.987 192.173 274.82 192.693 274.82C193.226 274.82 193.653 274.98 193.973 275.3C194.306 275.62 194.473 276.053 194.473 276.6V286.08H196.113ZM203.865 289.18C202.119 289.18 200.785 288.56 199.865 287.32C198.945 286.08 198.485 284.287 198.485 281.94C198.485 279.607 198.945 277.82 199.865 276.58C200.785 275.34 202.119 274.72 203.865 274.72C205.599 274.72 206.925 275.34 207.845 276.58C208.779 277.82 209.245 279.607 209.245 281.94C209.245 284.287 208.785 286.08 207.865 287.32C206.945 288.56 205.612 289.18 203.865 289.18ZM203.865 286.4C204.505 286.4 204.965 286.053 205.245 285.36C205.525 284.667 205.665 283.527 205.665 281.94C205.665 280.367 205.525 279.233 205.245 278.54C204.965 277.847 204.505 277.5 203.865 277.5C203.225 277.5 202.765 277.847 202.485 278.54C202.205 279.22 202.065 280.353 202.065 281.94C202.065 283.527 202.205 284.667 202.485 285.36C202.765 286.053 203.225 286.4 203.865 286.4ZM215.857 289.18C214.111 289.18 212.777 288.56 211.857 287.32C210.937 286.08 210.477 284.287 210.477 281.94C210.477 279.607 210.937 277.82 211.857 276.58C212.777 275.34 214.111 274.72 215.857 274.72C217.591 274.72 218.917 275.34 219.837 276.58C220.771 277.82 221.237 279.607 221.237 281.94C221.237 284.287 220.777 286.08 219.857 287.32C218.937 288.56 217.604 289.18 215.857 289.18ZM215.857 286.4C216.497 286.4 216.957 286.053 217.237 285.36C217.517 284.667 217.657 283.527 217.657 281.94C217.657 280.367 217.517 279.233 217.237 278.54C216.957 277.847 216.497 277.5 215.857 277.5C215.217 277.5 214.757 277.847 214.477 278.54C214.197 279.22 214.057 280.353 214.057 281.94C214.057 283.527 214.197 284.667 214.477 285.36C214.757 286.053 215.217 286.4 215.857 286.4ZM229.17 288.52C228.996 288.813 228.79 289.033 228.55 289.18C228.323 289.327 228.09 289.4 227.85 289.4C227.53 289.4 227.25 289.28 227.01 289.04C226.77 288.8 226.65 288.507 226.65 288.16C226.65 287.853 226.743 287.54 226.93 287.22L233.79 275.38C233.963 275.087 234.163 274.867 234.39 274.72C234.63 274.573 234.87 274.5 235.11 274.5C235.443 274.5 235.723 274.62 235.95 274.86C236.19 275.087 236.31 275.38 236.31 275.74C236.31 276.047 236.216 276.36 236.03 276.68L229.17 288.52ZM226.19 283.28C225.016 283.28 224.096 282.907 223.43 282.16C222.763 281.413 222.43 280.34 222.43 278.94C222.43 277.567 222.763 276.513 223.43 275.78C224.096 275.033 225.016 274.66 226.19 274.66C227.363 274.66 228.283 275.033 228.95 275.78C229.616 276.513 229.95 277.573 229.95 278.96C229.95 280.36 229.616 281.433 228.95 282.18C228.283 282.913 227.363 283.28 226.19 283.28ZM226.19 281.12C226.496 281.12 226.716 280.96 226.85 280.64C226.996 280.307 227.07 279.747 227.07 278.96C227.07 278.2 226.996 277.66 226.85 277.34C226.703 277.007 226.483 276.84 226.19 276.84C225.883 276.84 225.656 277.007 225.51 277.34C225.376 277.66 225.31 278.2 225.31 278.96C225.31 279.747 225.376 280.307 225.51 280.64C225.656 280.96 225.883 281.12 226.19 281.12ZM236.77 289.14C235.596 289.14 234.676 288.767 234.01 288.02C233.343 287.273 233.01 286.2 233.01 284.8C233.01 283.427 233.343 282.373 234.01 281.64C234.676 280.893 235.596 280.52 236.77 280.52C237.943 280.52 238.863 280.893 239.53 281.64C240.196 282.373 240.53 283.433 240.53 284.82C240.53 286.22 240.196 287.293 239.53 288.04C238.863 288.773 237.943 289.14 236.77 289.14ZM236.77 286.98C237.076 286.98 237.296 286.82 237.43 286.5C237.576 286.167 237.65 285.607 237.65 284.82C237.65 284.06 237.576 283.513 237.43 283.18C237.283 282.847 237.063 282.68 236.77 282.68C236.463 282.68 236.236 282.847 236.09 283.18C235.956 283.5 235.89 284.047 235.89 284.82C235.89 285.607 235.956 286.167 236.09 286.5C236.236 286.82 236.463 286.98 236.77 286.98Z" fill="#242331"/>
<path d="M43.788 63.36C44.14 63.984 44.524 64.528 44.94 64.992C45.372 65.456 45.844 65.816 46.356 66.072C46.868 66.328 47.42 66.456 48.012 66.456C48.7 66.456 49.26 66.28 49.692 65.928C50.124 65.576 50.34 65.096 50.34 64.488C50.34 63.96 50.204 63.536 49.932 63.216C49.676 62.896 49.284 62.616 48.756 62.376C48.244 62.12 47.612 61.848 46.86 61.56C46.46 61.416 45.996 61.224 45.468 60.984C44.956 60.728 44.468 60.408 44.004 60.024C43.54 59.624 43.156 59.144 42.852 58.584C42.548 58.008 42.396 57.32 42.396 56.52C42.396 55.56 42.636 54.736 43.116 54.048C43.612 53.344 44.276 52.808 45.108 52.44C45.956 52.056 46.9 51.864 47.94 51.864C49.012 51.864 49.932 52.048 50.7 52.416C51.484 52.768 52.132 53.224 52.644 53.784C53.172 54.328 53.58 54.896 53.868 55.488L51.18 56.976C50.956 56.576 50.684 56.216 50.364 55.896C50.06 55.56 49.708 55.296 49.308 55.104C48.908 54.896 48.452 54.792 47.94 54.792C47.268 54.792 46.764 54.952 46.428 55.272C46.092 55.576 45.924 55.936 45.924 56.352C45.924 56.768 46.06 57.136 46.332 57.456C46.604 57.76 47.02 58.056 47.58 58.344C48.14 58.616 48.844 58.896 49.692 59.184C50.236 59.376 50.756 59.616 51.252 59.904C51.764 60.192 52.22 60.544 52.62 60.96C53.036 61.36 53.356 61.84 53.58 62.4C53.82 62.944 53.94 63.576 53.94 64.296C53.94 65.112 53.78 65.84 53.46 66.48C53.14 67.12 52.7 67.664 52.14 68.112C51.58 68.544 50.948 68.872 50.244 69.096C49.556 69.336 48.828 69.456 48.06 69.456C47.036 69.456 46.076 69.264 45.18 68.88C44.3 68.48 43.532 67.944 42.876 67.272C42.22 66.6 41.708 65.872 41.34 65.088L43.788 63.36ZM61.6581 69.24C60.4581 69.24 59.4101 69 58.5141 68.52C57.6181 68.04 56.9221 67.376 56.4261 66.528C55.9461 65.664 55.7061 64.648 55.7061 63.48C55.7061 62.296 55.9461 61.28 56.4261 60.432C56.9221 59.568 57.6181 58.904 58.5141 58.44C59.4101 57.96 60.4661 57.72 61.6821 57.72C62.8981 57.72 63.9301 57.944 64.7781 58.392C65.6421 58.824 66.2981 59.464 66.7461 60.312C67.1941 61.144 67.4181 62.152 67.4181 63.336C67.4181 63.48 67.4101 63.632 67.3941 63.792C67.3941 63.952 67.3861 64.08 67.3701 64.176H57.4821V62.256H64.6581L63.8181 63.36C63.8821 63.264 63.9381 63.136 63.9861 62.976C64.0501 62.8 64.0821 62.656 64.0821 62.544C64.0821 62 63.9781 61.536 63.7701 61.152C63.5781 60.768 63.2981 60.464 62.9301 60.24C62.5621 60.016 62.1301 59.904 61.6341 59.904C61.0261 59.904 60.5141 60.04 60.0981 60.312C59.6981 60.568 59.3861 60.96 59.1621 61.488C58.9541 62 58.8421 62.64 58.8261 63.408C58.8261 64.144 58.9301 64.768 59.1381 65.28C59.3621 65.792 59.6901 66.184 60.1221 66.456C60.5541 66.728 61.0741 66.864 61.6821 66.864C62.3701 66.864 62.9541 66.736 63.4341 66.48C63.9301 66.208 64.3381 65.808 64.6581 65.28L67.3701 66.12C66.7941 67.16 66.0261 67.944 65.0661 68.472C64.1221 68.984 62.9861 69.24 61.6581 69.24ZM76.8906 62.28C76.8906 61.544 76.7466 60.984 76.4586 60.6C76.1706 60.216 75.7066 60.024 75.0666 60.024C74.6346 60.024 74.2506 60.12 73.9146 60.312C73.5786 60.488 73.3226 60.744 73.1466 61.08C72.9706 61.416 72.8826 61.816 72.8826 62.28V69H69.7626V57.96H72.8826V59.64C73.2186 59.016 73.6586 58.544 74.2026 58.224C74.7626 57.888 75.4346 57.72 76.2186 57.72C77.5306 57.72 78.5066 58.096 79.1466 58.848C79.7866 59.584 80.1066 60.616 80.1066 61.944V69H76.8906V62.28ZM81.7528 57.96H88.5688V60.576H81.7528V57.96ZM83.6488 54.12H86.6488V69H83.6488V54.12ZM90.0795 53.688C90.0795 53.176 90.2635 52.76 90.6315 52.44C90.9995 52.104 91.4395 51.936 91.9515 51.936C92.4635 51.936 92.8955 52.104 93.2475 52.44C93.6155 52.76 93.7995 53.176 93.7995 53.688C93.7995 54.184 93.6155 54.6 93.2475 54.936C92.8955 55.272 92.4635 55.44 91.9515 55.44C91.4395 55.44 90.9995 55.272 90.6315 54.936C90.2635 54.6 90.0795 54.184 90.0795 53.688ZM90.4155 57.96H93.4395V69H90.4155V57.96ZM113.059 61.944V69H109.939V62.28C109.939 61.528 109.811 60.968 109.555 60.6C109.299 60.216 108.883 60.024 108.307 60.024C107.923 60.024 107.587 60.112 107.299 60.288C107.011 60.448 106.787 60.704 106.627 61.056C106.467 61.392 106.387 61.8 106.387 62.28V69H103.291V62.28C103.291 61.528 103.163 60.968 102.907 60.6C102.651 60.216 102.235 60.024 101.659 60.024C101.275 60.024 100.939 60.112 100.651 60.288C100.363 60.448 100.139 60.704 99.9791 61.056C99.8191 61.392 99.7391 61.8 99.7391 62.28V69H96.7391V57.96H99.7391V59.592C100.059 58.984 100.483 58.52 101.011 58.2C101.539 57.88 102.171 57.72 102.907 57.72C103.723 57.72 104.395 57.88 104.923 58.2C105.451 58.52 105.835 58.992 106.075 59.616C106.475 58.992 106.963 58.52 107.539 58.2C108.131 57.88 108.803 57.72 109.555 57.72C110.371 57.72 111.035 57.888 111.547 58.224C112.059 58.544 112.435 59.024 112.675 59.664C112.931 60.288 113.059 61.048 113.059 61.944ZM121.33 69.24C120.13 69.24 119.082 69 118.186 68.52C117.29 68.04 116.594 67.376 116.098 66.528C115.618 65.664 115.378 64.648 115.378 63.48C115.378 62.296 115.618 61.28 116.098 60.432C116.594 59.568 117.29 58.904 118.186 58.44C119.082 57.96 120.138 57.72 121.354 57.72C122.57 57.72 123.602 57.944 124.45 58.392C125.314 58.824 125.97 59.464 126.418 60.312C126.866 61.144 127.09 62.152 127.09 63.336C127.09 63.48 127.082 63.632 127.066 63.792C127.066 63.952 127.058 64.08 127.042 64.176H117.154V62.256H124.33L123.49 63.36C123.554 63.264 123.61 63.136 123.658 62.976C123.722 62.8 123.754 62.656 123.754 62.544C123.754 62 123.65 61.536 123.442 61.152C123.25 60.768 122.97 60.464 122.602 60.24C122.234 60.016 121.802 59.904 121.306 59.904C120.698 59.904 120.186 60.04 119.77 60.312C119.37 60.568 119.058 60.96 118.834 61.488C118.626 62 118.514 62.64 118.498 63.408C118.498 64.144 118.602 64.768 118.81 65.28C119.034 65.792 119.362 66.184 119.794 66.456C120.226 66.728 120.746 66.864 121.354 66.864C122.042 66.864 122.626 66.736 123.106 66.48C123.602 66.208 124.01 65.808 124.33 65.28L127.042 66.12C126.466 67.16 125.698 67.944 124.738 68.472C123.794 68.984 122.658 69.24 121.33 69.24ZM136.562 62.28C136.562 61.544 136.418 60.984 136.13 60.6C135.842 60.216 135.378 60.024 134.738 60.024C134.306 60.024 133.922 60.12 133.586 60.312C133.25 60.488 132.994 60.744 132.818 61.08C132.642 61.416 132.554 61.816 132.554 62.28V69H129.434V57.96H132.554V59.64C132.89 59.016 133.33 58.544 133.874 58.224C134.434 57.888 135.106 57.72 135.89 57.72C137.202 57.72 138.178 58.096 138.818 58.848C139.458 59.584 139.778 60.616 139.778 61.944V69H136.562V62.28ZM141.425 57.96H148.241V60.576H141.425V57.96ZM143.321 54.12H146.321V69H143.321V54.12Z" fill="#242331"/>
</svg>
