<svg width="1424" height="790" viewBox="0 0 1424 790" fill="none" xmlns="http://www.w3.org/2000/svg">
<rect width="1424" height="790" rx="10" fill="white"/>
<g opacity="0.1">
<path fill-rule="evenodd" clip-rule="evenodd" d="M90 100.5C90 100.224 90.2239 100 90.5 100H1383.5C1383.78 100 1384 100.224 1384 100.5C1384 100.776 1383.78 101 1383.5 101H90.5C90.2239 101 90 100.776 90 100.5Z" fill="black"/>
<path fill-rule="evenodd" clip-rule="evenodd" d="M90 198.5C90 198.224 90.2239 198 90.5 198H1383.5C1383.78 198 1384 198.224 1384 198.5C1384 198.776 1383.78 199 1383.5 199H90.5C90.2239 199 90 198.776 90 198.5Z" fill="black"/>
<path fill-rule="evenodd" clip-rule="evenodd" d="M90 296.5C90 296.224 90.2239 296 90.5 296H1383.5C1383.78 296 1384 296.224 1384 296.5C1384 296.776 1383.78 297 1383.5 297H90.5C90.2239 297 90 296.776 90 296.5Z" fill="black"/>
<path fill-rule="evenodd" clip-rule="evenodd" d="M90 394.5C90 394.224 90.2239 394 90.5 394H1383.5C1383.78 394 1384 394.224 1384 394.5C1384 394.776 1383.78 395 1383.5 395H90.5C90.2239 395 90 394.776 90 394.5Z" fill="black"/>
<path fill-rule="evenodd" clip-rule="evenodd" d="M90 492.5C90 492.224 90.2239 492 90.5 492H1383.5C1383.78 492 1384 492.224 1384 492.5C1384 492.776 1383.78 493 1383.5 493H90.5C90.2239 493 90 492.776 90 492.5Z" fill="black"/>
<path fill-rule="evenodd" clip-rule="evenodd" d="M90 590.5C90 590.224 90.2239 590 90.5 590H1383.5C1383.78 590 1384 590.224 1384 590.5C1384 590.776 1383.78 591 1383.5 591H90.5C90.2239 591 90 590.776 90 590.5Z" fill="black"/>
<path fill-rule="evenodd" clip-rule="evenodd" d="M90 688.5C90 688.224 90.2239 688 90.5 688H1383.5C1383.78 688 1384 688.224 1384 688.5C1384 688.776 1383.78 689 1383.5 689H90.5C90.2239 689 90 688.776 90 688.5Z" fill="black"/>
<path fill-rule="evenodd" clip-rule="evenodd" d="M90.5 100C90.7761 100 91 100.224 91 100.5V688.5C91 688.776 90.7761 689 90.5 689C90.2239 689 90 688.776 90 688.5V100.5C90 100.224 90.2239 100 90.5 100Z" fill="black"/>
<path fill-rule="evenodd" clip-rule="evenodd" d="M198.5 100C198.776 100 199 100.224 199 100.5V688.5C199 688.776 198.776 689 198.5 689C198.224 689 198 688.776 198 688.5V100.5C198 100.224 198.224 100 198.5 100Z" fill="black"/>
<path fill-rule="evenodd" clip-rule="evenodd" d="M306.5 100C306.776 100 307 100.224 307 100.5V688.5C307 688.776 306.776 689 306.5 689C306.224 689 306 688.776 306 688.5V100.5C306 100.224 306.224 100 306.5 100Z" fill="black"/>
<path fill-rule="evenodd" clip-rule="evenodd" d="M413.5 100C413.776 100 414 100.224 414 100.5V688.5C414 688.776 413.776 689 413.5 689C413.224 689 413 688.776 413 688.5V100.5C413 100.224 413.224 100 413.5 100Z" fill="black"/>
<path fill-rule="evenodd" clip-rule="evenodd" d="M521.5 100C521.776 100 522 100.224 522 100.5V688.5C522 688.776 521.776 689 521.5 689C521.224 689 521 688.776 521 688.5V100.5C521 100.224 521.224 100 521.5 100Z" fill="black"/>
<path fill-rule="evenodd" clip-rule="evenodd" d="M629.5 100C629.776 100 630 100.224 630 100.5V688.5C630 688.776 629.776 689 629.5 689C629.224 689 629 688.776 629 688.5V100.5C629 100.224 629.224 100 629.5 100Z" fill="black"/>
<path fill-rule="evenodd" clip-rule="evenodd" d="M737.5 100C737.776 100 738 100.224 738 100.5V688.5C738 688.776 737.776 689 737.5 689C737.224 689 737 688.776 737 688.5V100.5C737 100.224 737.224 100 737.5 100Z" fill="black"/>
<path fill-rule="evenodd" clip-rule="evenodd" d="M844.5 100C844.776 100 845 100.224 845 100.5V688.5C845 688.776 844.776 689 844.5 689C844.224 689 844 688.776 844 688.5V100.5C844 100.224 844.224 100 844.5 100Z" fill="black"/>
<path fill-rule="evenodd" clip-rule="evenodd" d="M952.5 100C952.776 100 953 100.224 953 100.5V688.5C953 688.776 952.776 689 952.5 689C952.224 689 952 688.776 952 688.5V100.5C952 100.224 952.224 100 952.5 100Z" fill="black"/>
<path fill-rule="evenodd" clip-rule="evenodd" d="M1060.5 100C1060.78 100 1061 100.224 1061 100.5V688.5C1061 688.776 1060.78 689 1060.5 689C1060.22 689 1060 688.776 1060 688.5V100.5C1060 100.224 1060.22 100 1060.5 100Z" fill="black"/>
<path fill-rule="evenodd" clip-rule="evenodd" d="M1168.5 100C1168.78 100 1169 100.224 1169 100.5V688.5C1169 688.776 1168.78 689 1168.5 689C1168.22 689 1168 688.776 1168 688.5V100.5C1168 100.224 1168.22 100 1168.5 100Z" fill="black"/>
<path fill-rule="evenodd" clip-rule="evenodd" d="M1275.5 100C1275.78 100 1276 100.224 1276 100.5V688.5C1276 688.776 1275.78 689 1275.5 689C1275.22 689 1275 688.776 1275 688.5V100.5C1275 100.224 1275.22 100 1275.5 100Z" fill="black"/>
<path fill-rule="evenodd" clip-rule="evenodd" d="M1383.5 100C1383.78 100 1384 100.224 1384 100.5V688.5C1384 688.776 1383.78 689 1383.5 689C1383.22 689 1383 688.776 1383 688.5V100.5C1383 100.224 1383.22 100 1383.5 100Z" fill="black"/>
</g>
<g clip-path="url(#clip0_1_5)">
<path opacity="0.4" d="M92.002 734V725.516L90.42 725.866V725.054L92.394 724.2H93.192V734H92.002ZM98.3217 735.33L101.836 723.304H102.998L99.4837 735.33H98.3217ZM109.106 734V725.516L107.524 725.866V725.054L109.498 724.2H110.296V734H109.106ZM112.21 734V733.174C112.873 732.651 113.498 732.124 114.086 731.592C114.683 731.051 115.211 730.519 115.668 729.996C116.135 729.473 116.499 728.96 116.76 728.456C117.031 727.952 117.166 727.467 117.166 727C117.166 726.655 117.105 726.333 116.984 726.034C116.872 725.735 116.685 725.497 116.424 725.32C116.163 725.133 115.808 725.04 115.36 725.04C114.931 725.04 114.571 725.138 114.282 725.334C113.993 725.521 113.773 725.773 113.624 726.09C113.484 726.407 113.414 726.748 113.414 727.112H112.28C112.28 726.468 112.415 725.917 112.686 725.46C112.957 724.993 113.325 724.639 113.792 724.396C114.259 724.153 114.786 724.032 115.374 724.032C116.242 724.032 116.951 724.279 117.502 724.774C118.062 725.259 118.342 725.987 118.342 726.958C118.342 727.537 118.197 728.111 117.908 728.68C117.619 729.24 117.25 729.786 116.802 730.318C116.354 730.841 115.873 731.331 115.36 731.788C114.856 732.245 114.385 732.656 113.946 733.02H118.678V734H112.21Z" fill="black"/>
<path opacity="0.4" d="M198.882 734V733.174C199.545 732.651 200.17 732.124 200.758 731.592C201.355 731.051 201.883 730.519 202.34 729.996C202.807 729.473 203.171 728.96 203.432 728.456C203.703 727.952 203.838 727.467 203.838 727C203.838 726.655 203.777 726.333 203.656 726.034C203.544 725.735 203.357 725.497 203.096 725.32C202.835 725.133 202.48 725.04 202.032 725.04C201.603 725.04 201.243 725.138 200.954 725.334C200.665 725.521 200.445 725.773 200.296 726.09C200.156 726.407 200.086 726.748 200.086 727.112H198.952C198.952 726.468 199.087 725.917 199.358 725.46C199.629 724.993 199.997 724.639 200.464 724.396C200.931 724.153 201.458 724.032 202.046 724.032C202.914 724.032 203.623 724.279 204.174 724.774C204.734 725.259 205.014 725.987 205.014 726.958C205.014 727.537 204.869 728.111 204.58 728.68C204.291 729.24 203.922 729.786 203.474 730.318C203.026 730.841 202.545 731.331 202.032 731.788C201.528 732.245 201.057 732.656 200.618 733.02H205.35V734H198.882ZM210.109 735.33L213.623 723.304H214.785L211.271 735.33H210.109ZM220.893 734V725.516L219.311 725.866V725.054L221.285 724.2H222.083V734H220.893ZM223.997 734V733.174C224.66 732.651 225.285 732.124 225.873 731.592C226.471 731.051 226.998 730.519 227.455 729.996C227.922 729.473 228.286 728.96 228.547 728.456C228.818 727.952 228.953 727.467 228.953 727C228.953 726.655 228.893 726.333 228.771 726.034C228.659 725.735 228.473 725.497 228.211 725.32C227.95 725.133 227.595 725.04 227.147 725.04C226.718 725.04 226.359 725.138 226.069 725.334C225.78 725.521 225.561 725.773 225.411 726.09C225.271 726.407 225.201 726.748 225.201 727.112H224.067C224.067 726.468 224.203 725.917 224.473 725.46C224.744 724.993 225.113 724.639 225.579 724.396C226.046 724.153 226.573 724.032 227.161 724.032C228.029 724.032 228.739 724.279 229.289 724.774C229.849 725.259 230.129 725.987 230.129 726.958C230.129 727.537 229.985 728.111 229.695 728.68C229.406 729.24 229.037 729.786 228.589 730.318C228.141 730.841 227.661 731.331 227.147 731.788C226.643 732.245 226.172 732.656 225.733 733.02H230.465V734H223.997Z" fill="black"/>
<path opacity="0.4" d="M311.088 734.168C310.463 734.168 309.898 734.056 309.394 733.832C308.89 733.599 308.484 733.253 308.176 732.796C307.877 732.339 307.719 731.769 307.7 731.088H308.89C308.899 731.648 309.095 732.133 309.478 732.544C309.861 732.945 310.397 733.146 311.088 733.146C311.779 733.146 312.297 732.955 312.642 732.572C312.997 732.189 313.174 731.727 313.174 731.186C313.174 730.729 313.062 730.355 312.838 730.066C312.623 729.777 312.329 729.562 311.956 729.422C311.592 729.282 311.191 729.212 310.752 729.212H310.024V728.218H310.752C311.387 728.218 311.881 728.073 312.236 727.784C312.6 727.495 312.782 727.089 312.782 726.566C312.782 726.127 312.637 725.768 312.348 725.488C312.068 725.199 311.648 725.054 311.088 725.054C310.547 725.054 310.113 725.217 309.786 725.544C309.459 725.861 309.277 726.263 309.24 726.748H308.05C308.078 726.216 308.218 725.745 308.47 725.334C308.731 724.923 309.086 724.606 309.534 724.382C309.982 724.149 310.5 724.032 311.088 724.032C311.723 724.032 312.25 724.144 312.67 724.368C313.099 724.592 313.421 724.891 313.636 725.264C313.86 725.637 313.972 726.048 313.972 726.496C313.972 726.991 313.837 727.443 313.566 727.854C313.295 728.255 312.889 728.526 312.348 728.666C312.927 728.787 313.407 729.063 313.79 729.492C314.173 729.921 314.364 730.486 314.364 731.186C314.364 731.727 314.238 732.227 313.986 732.684C313.743 733.132 313.379 733.491 312.894 733.762C312.409 734.033 311.807 734.168 311.088 734.168ZM319.328 735.33L322.842 723.304H324.004L320.49 735.33H319.328ZM330.111 734V725.516L328.529 725.866V725.054L330.503 724.2H331.301V734H330.111ZM333.216 734V733.174C333.879 732.651 334.504 732.124 335.092 731.592C335.689 731.051 336.217 730.519 336.674 729.996C337.141 729.473 337.505 728.96 337.766 728.456C338.037 727.952 338.172 727.467 338.172 727C338.172 726.655 338.111 726.333 337.99 726.034C337.878 725.735 337.691 725.497 337.43 725.32C337.169 725.133 336.814 725.04 336.366 725.04C335.937 725.04 335.577 725.138 335.288 725.334C334.999 725.521 334.779 725.773 334.63 726.09C334.49 726.407 334.42 726.748 334.42 727.112H333.286C333.286 726.468 333.421 725.917 333.692 725.46C333.963 724.993 334.331 724.639 334.798 724.396C335.265 724.153 335.792 724.032 336.38 724.032C337.248 724.032 337.957 724.279 338.508 724.774C339.068 725.259 339.348 725.987 339.348 726.958C339.348 727.537 339.203 728.111 338.914 728.68C338.625 729.24 338.256 729.786 337.808 730.318C337.36 730.841 336.879 731.331 336.366 731.788C335.862 732.245 335.391 732.656 334.952 733.02H339.684V734H333.216Z" fill="black"/>
<path opacity="0.4" d="M421.474 734V731.9H416.504V730.99L421.264 724.2H422.636V730.864H424.092V731.9H422.636V734H421.474ZM417.806 730.864H421.53V725.502L417.806 730.864ZM428.574 735.33L432.088 723.304H433.25L429.736 735.33H428.574ZM439.357 734V725.516L437.775 725.866V725.054L439.749 724.2H440.547V734H439.357ZM442.462 734V733.174C443.125 732.651 443.75 732.124 444.338 731.592C444.935 731.051 445.463 730.519 445.92 729.996C446.387 729.473 446.751 728.96 447.012 728.456C447.283 727.952 447.418 727.467 447.418 727C447.418 726.655 447.357 726.333 447.236 726.034C447.124 725.735 446.937 725.497 446.676 725.32C446.415 725.133 446.06 725.04 445.612 725.04C445.183 725.04 444.823 725.138 444.534 725.334C444.245 725.521 444.025 725.773 443.876 726.09C443.736 726.407 443.666 726.748 443.666 727.112H442.532C442.532 726.468 442.667 725.917 442.938 725.46C443.209 724.993 443.577 724.639 444.044 724.396C444.511 724.153 445.038 724.032 445.626 724.032C446.494 724.032 447.203 724.279 447.754 724.774C448.314 725.259 448.594 725.987 448.594 726.958C448.594 727.537 448.449 728.111 448.16 728.68C447.871 729.24 447.502 729.786 447.054 730.318C446.606 730.841 446.125 731.331 445.612 731.788C445.108 732.245 444.637 732.656 444.198 733.02H448.93V734H442.462Z" fill="black"/>
<path opacity="0.4" d="M529.368 734.168C528.696 734.168 528.113 734.047 527.618 733.804C527.123 733.561 526.727 733.23 526.428 732.81C526.139 732.381 525.961 731.895 525.896 731.354H527.044C527.156 731.895 527.417 732.334 527.828 732.67C528.239 732.997 528.757 733.16 529.382 733.16C529.849 733.16 530.25 733.053 530.586 732.838C530.922 732.614 531.179 732.315 531.356 731.942C531.543 731.569 531.636 731.153 531.636 730.696C531.636 729.968 531.431 729.38 531.02 728.932C530.609 728.484 530.077 728.26 529.424 728.26C528.883 728.26 528.421 728.381 528.038 728.624C527.655 728.867 527.375 729.184 527.198 729.576H526.078L526.918 724.2H532.056V725.222H527.828L527.254 728.204C527.478 727.933 527.786 727.709 528.178 727.532C528.579 727.355 529.037 727.266 529.55 727.266C530.194 727.266 530.754 727.415 531.23 727.714C531.715 728.013 532.093 728.419 532.364 728.932C532.635 729.445 532.77 730.029 532.77 730.682C532.77 731.307 532.635 731.886 532.364 732.418C532.103 732.95 531.715 733.375 531.202 733.692C530.698 734.009 530.087 734.168 529.368 734.168ZM537.669 735.33L541.183 723.304H542.345L538.831 735.33H537.669ZM548.453 734V725.516L546.871 725.866V725.054L548.845 724.2H549.643V734H548.453ZM551.558 734V733.174C552.22 732.651 552.846 732.124 553.434 731.592C554.031 731.051 554.558 730.519 555.016 729.996C555.482 729.473 555.846 728.96 556.108 728.456C556.378 727.952 556.514 727.467 556.514 727C556.514 726.655 556.453 726.333 556.332 726.034C556.22 725.735 556.033 725.497 555.772 725.32C555.51 725.133 555.156 725.04 554.708 725.04C554.278 725.04 553.919 725.138 553.63 725.334C553.34 725.521 553.121 725.773 552.972 726.09C552.832 726.407 552.762 726.748 552.762 727.112H551.628C551.628 726.468 551.763 725.917 552.034 725.46C552.304 724.993 552.673 724.639 553.14 724.396C553.606 724.153 554.134 724.032 554.722 724.032C555.59 724.032 556.299 724.279 556.85 724.774C557.41 725.259 557.69 725.987 557.69 726.958C557.69 727.537 557.545 728.111 557.256 728.68C556.966 729.24 556.598 729.786 556.15 730.318C555.702 730.841 555.221 731.331 554.708 731.788C554.204 732.245 553.732 732.656 553.294 733.02H558.026V734H551.558Z" fill="black"/>
<path opacity="0.4" d="M638.564 734.168C637.855 734.168 637.257 734.037 636.772 733.776C636.287 733.505 635.895 733.146 635.596 732.698C635.307 732.25 635.092 731.751 634.952 731.2C634.821 730.64 634.756 730.071 634.756 729.492C634.756 728.409 634.905 727.462 635.204 726.65C635.503 725.829 635.932 725.189 636.492 724.732C637.061 724.265 637.747 724.032 638.55 724.032C639.166 724.032 639.693 724.153 640.132 724.396C640.571 724.639 640.916 724.965 641.168 725.376C641.429 725.777 641.593 726.225 641.658 726.72H640.566C640.463 726.188 640.235 725.777 639.88 725.488C639.525 725.199 639.077 725.054 638.536 725.054C637.799 725.054 637.178 725.404 636.674 726.104C636.179 726.795 635.913 727.877 635.876 729.352C636.1 728.913 636.455 728.535 636.94 728.218C637.435 727.891 638.027 727.728 638.718 727.728C639.278 727.728 639.801 727.859 640.286 728.12C640.781 728.381 641.182 728.75 641.49 729.226C641.798 729.693 641.952 730.243 641.952 730.878C641.952 731.429 641.817 731.956 641.546 732.46C641.275 732.964 640.883 733.375 640.37 733.692C639.866 734.009 639.264 734.168 638.564 734.168ZM638.48 733.132C638.919 733.132 639.311 733.039 639.656 732.852C640.001 732.665 640.272 732.409 640.468 732.082C640.664 731.746 640.762 731.363 640.762 730.934C640.762 730.271 640.543 729.744 640.104 729.352C639.675 728.951 639.133 728.75 638.48 728.75C638.041 728.75 637.649 728.853 637.304 729.058C636.959 729.254 636.683 729.52 636.478 729.856C636.282 730.192 636.184 730.556 636.184 730.948C636.184 731.368 636.282 731.746 636.478 732.082C636.683 732.409 636.959 732.665 637.304 732.852C637.649 733.039 638.041 733.132 638.48 733.132ZM646.915 735.33L650.429 723.304H651.591L648.077 735.33H646.915ZM657.699 734V725.516L656.117 725.866V725.054L658.091 724.2H658.889V734H657.699ZM660.804 734V733.174C661.467 732.651 662.092 732.124 662.68 731.592C663.277 731.051 663.805 730.519 664.262 729.996C664.729 729.473 665.093 728.96 665.354 728.456C665.625 727.952 665.76 727.467 665.76 727C665.76 726.655 665.699 726.333 665.578 726.034C665.466 725.735 665.279 725.497 665.018 725.32C664.757 725.133 664.402 725.04 663.954 725.04C663.525 725.04 663.165 725.138 662.876 725.334C662.587 725.521 662.367 725.773 662.218 726.09C662.078 726.407 662.008 726.748 662.008 727.112H660.874C660.874 726.468 661.009 725.917 661.28 725.46C661.551 724.993 661.919 724.639 662.386 724.396C662.853 724.153 663.38 724.032 663.968 724.032C664.836 724.032 665.545 724.279 666.096 724.774C666.656 725.259 666.936 725.987 666.936 726.958C666.936 727.537 666.791 728.111 666.502 728.68C666.213 729.24 665.844 729.786 665.396 730.318C664.948 730.841 664.467 731.331 663.954 731.788C663.45 732.245 662.979 732.656 662.54 733.02H667.272V734H660.804Z" fill="black"/>
<path opacity="0.4" d="M744.848 734L748.74 725.208H743.364V724.2H749.944V725.082L746.094 734H744.848ZM754.562 735.33L758.076 723.304H759.238L755.724 735.33H754.562ZM765.346 734V725.516L763.764 725.866V725.054L765.738 724.2H766.536V734H765.346ZM768.45 734V733.174C769.113 732.651 769.738 732.124 770.326 731.592C770.924 731.051 771.451 730.519 771.908 729.996C772.375 729.473 772.739 728.96 773 728.456C773.271 727.952 773.406 727.467 773.406 727C773.406 726.655 773.346 726.333 773.224 726.034C773.112 725.735 772.926 725.497 772.664 725.32C772.403 725.133 772.048 725.04 771.6 725.04C771.171 725.04 770.812 725.138 770.522 725.334C770.233 725.521 770.014 725.773 769.864 726.09C769.724 726.407 769.654 726.748 769.654 727.112H768.52C768.52 726.468 768.656 725.917 768.926 725.46C769.197 724.993 769.566 724.639 770.032 724.396C770.499 724.153 771.026 724.032 771.614 724.032C772.482 724.032 773.192 724.279 773.742 724.774C774.302 725.259 774.582 725.987 774.582 726.958C774.582 727.537 774.438 728.111 774.148 728.68C773.859 729.24 773.49 729.786 773.042 730.318C772.594 730.841 772.114 731.331 771.6 731.788C771.096 732.245 770.625 732.656 770.186 733.02H774.918V734H768.45Z" fill="black"/>
<path opacity="0.4" d="M856.27 734.168C855.626 734.168 855.047 734.051 854.534 733.818C854.021 733.575 853.615 733.244 853.316 732.824C853.027 732.395 852.882 731.9 852.882 731.34C852.882 730.743 853.055 730.206 853.4 729.73C853.755 729.254 854.221 728.937 854.8 728.778C854.268 728.601 853.857 728.316 853.568 727.924C853.279 727.532 853.134 727.103 853.134 726.636C853.134 726.16 853.26 725.726 853.512 725.334C853.764 724.933 854.123 724.615 854.59 724.382C855.057 724.149 855.617 724.032 856.27 724.032C856.923 724.032 857.483 724.149 857.95 724.382C858.417 724.615 858.776 724.933 859.028 725.334C859.28 725.726 859.406 726.16 859.406 726.636C859.406 727.093 859.261 727.523 858.972 727.924C858.683 728.316 858.272 728.601 857.74 728.778C858.319 728.937 858.781 729.254 859.126 729.73C859.481 730.206 859.658 730.743 859.658 731.34C859.658 731.9 859.509 732.395 859.21 732.824C858.921 733.244 858.519 733.575 858.006 733.818C857.493 734.051 856.914 734.168 856.27 734.168ZM856.27 728.358C856.867 728.358 857.339 728.209 857.684 727.91C858.039 727.602 858.216 727.201 858.216 726.706C858.216 726.155 858.043 725.74 857.698 725.46C857.353 725.18 856.877 725.04 856.27 725.04C855.663 725.04 855.187 725.18 854.842 725.46C854.506 725.74 854.338 726.155 854.338 726.706C854.338 727.201 854.511 727.602 854.856 727.91C855.201 728.209 855.673 728.358 856.27 728.358ZM856.27 733.132C857.007 733.132 857.558 732.964 857.922 732.628C858.295 732.283 858.482 731.83 858.482 731.27C858.482 730.635 858.281 730.155 857.88 729.828C857.479 729.501 856.942 729.338 856.27 729.338C855.598 729.338 855.061 729.501 854.66 729.828C854.259 730.155 854.058 730.635 854.058 731.27C854.058 731.83 854.24 732.283 854.604 732.628C854.977 732.964 855.533 733.132 856.27 733.132ZM864.642 735.33L868.156 723.304H869.318L865.804 735.33H864.642ZM875.426 734V725.516L873.844 725.866V725.054L875.818 724.2H876.616V734H875.426ZM878.53 734V733.174C879.193 732.651 879.818 732.124 880.406 731.592C881.004 731.051 881.531 730.519 881.988 729.996C882.455 729.473 882.819 728.96 883.08 728.456C883.351 727.952 883.486 727.467 883.486 727C883.486 726.655 883.426 726.333 883.304 726.034C883.192 725.735 883.006 725.497 882.744 725.32C882.483 725.133 882.128 725.04 881.68 725.04C881.251 725.04 880.892 725.138 880.602 725.334C880.313 725.521 880.094 725.773 879.944 726.09C879.804 726.407 879.734 726.748 879.734 727.112H878.6C878.6 726.468 878.736 725.917 879.006 725.46C879.277 724.993 879.646 724.639 880.112 724.396C880.579 724.153 881.106 724.032 881.694 724.032C882.562 724.032 883.272 724.279 883.822 724.774C884.382 725.259 884.662 725.987 884.662 726.958C884.662 727.537 884.518 728.111 884.228 728.68C883.939 729.24 883.57 729.786 883.122 730.318C882.674 730.841 882.194 731.331 881.68 731.788C881.176 732.245 880.705 732.656 880.266 733.02H884.998V734H878.53Z" fill="black"/>
<path opacity="0.4" d="M965.27 734.168C964.654 734.168 964.127 734.047 963.688 733.804C963.249 733.561 962.899 733.239 962.638 732.838C962.386 732.427 962.232 731.975 962.176 731.48H963.268C963.361 732.012 963.585 732.423 963.94 732.712C964.295 733.001 964.743 733.146 965.284 733.146C966.031 733.146 966.651 732.801 967.146 732.11C967.641 731.41 967.907 730.323 967.944 728.848C967.72 729.287 967.361 729.669 966.866 729.996C966.381 730.313 965.793 730.472 965.102 730.472C964.551 730.472 964.029 730.341 963.534 730.08C963.039 729.819 962.638 729.455 962.33 728.988C962.022 728.512 961.868 727.957 961.868 727.322C961.868 726.771 962.003 726.244 962.274 725.74C962.554 725.236 962.946 724.825 963.45 724.508C963.954 724.191 964.556 724.032 965.256 724.032C965.965 724.032 966.563 724.167 967.048 724.438C967.533 724.699 967.921 725.054 968.21 725.502C968.509 725.95 968.723 726.454 968.854 727.014C968.994 727.565 969.064 728.129 969.064 728.708C969.064 729.791 968.915 730.743 968.616 731.564C968.317 732.376 967.883 733.015 967.314 733.482C966.754 733.939 966.073 734.168 965.27 734.168ZM965.34 729.45C965.779 729.45 966.171 729.352 966.516 729.156C966.861 728.951 967.137 728.68 967.342 728.344C967.547 728.008 967.65 727.644 967.65 727.252C967.65 726.832 967.547 726.459 967.342 726.132C967.137 725.796 966.861 725.535 966.516 725.348C966.171 725.161 965.779 725.068 965.34 725.068C964.901 725.068 964.509 725.161 964.164 725.348C963.819 725.535 963.548 725.796 963.352 726.132C963.156 726.459 963.058 726.837 963.058 727.266C963.058 727.929 963.273 728.461 963.702 728.862C964.141 729.254 964.687 729.45 965.34 729.45ZM973.915 735.33L977.429 723.304H978.591L975.077 735.33H973.915ZM984.699 734V725.516L983.117 725.866V725.054L985.091 724.2H985.889V734H984.699ZM987.804 734V733.174C988.467 732.651 989.092 732.124 989.68 731.592C990.277 731.051 990.805 730.519 991.262 729.996C991.729 729.473 992.093 728.96 992.354 728.456C992.625 727.952 992.76 727.467 992.76 727C992.76 726.655 992.699 726.333 992.578 726.034C992.466 725.735 992.279 725.497 992.018 725.32C991.757 725.133 991.402 725.04 990.954 725.04C990.525 725.04 990.165 725.138 989.876 725.334C989.587 725.521 989.367 725.773 989.218 726.09C989.078 726.407 989.008 726.748 989.008 727.112H987.874C987.874 726.468 988.009 725.917 988.28 725.46C988.551 724.993 988.919 724.639 989.386 724.396C989.853 724.153 990.38 724.032 990.968 724.032C991.836 724.032 992.545 724.279 993.096 724.774C993.656 725.259 993.936 725.987 993.936 726.958C993.936 727.537 993.791 728.111 993.502 728.68C993.213 729.24 992.844 729.786 992.396 730.318C991.948 730.841 991.467 731.331 990.954 731.788C990.45 732.245 989.979 732.656 989.54 733.02H994.272V734H987.804Z" fill="black"/>
<path opacity="0.4" d="M1072 734V725.516L1070.42 725.866V725.054L1072.39 724.2H1073.19V734H1072ZM1079.08 734.168C1078.21 734.168 1077.46 733.958 1076.83 733.538C1076.2 733.109 1075.72 732.516 1075.39 731.76C1075.05 730.995 1074.88 730.108 1074.88 729.1C1074.88 728.092 1075.05 727.21 1075.39 726.454C1075.72 725.689 1076.2 725.096 1076.83 724.676C1077.46 724.247 1078.21 724.032 1079.08 724.032C1079.95 724.032 1080.7 724.247 1081.32 724.676C1081.95 725.096 1082.43 725.689 1082.76 726.454C1083.1 727.21 1083.27 728.092 1083.27 729.1C1083.27 730.108 1083.1 730.995 1082.76 731.76C1082.43 732.516 1081.95 733.109 1081.32 733.538C1080.7 733.958 1079.95 734.168 1079.08 734.168ZM1079.08 733.132C1079.65 733.132 1080.16 732.973 1080.61 732.656C1081.07 732.329 1081.42 731.867 1081.67 731.27C1081.93 730.663 1082.06 729.94 1082.06 729.1C1082.06 728.26 1081.93 727.541 1081.67 726.944C1081.42 726.347 1081.07 725.889 1080.61 725.572C1080.16 725.245 1079.65 725.082 1079.08 725.082C1078.5 725.082 1077.99 725.245 1077.54 725.572C1077.09 725.889 1076.74 726.347 1076.48 726.944C1076.22 727.541 1076.09 728.26 1076.09 729.1C1076.09 729.94 1076.22 730.663 1076.48 731.27C1076.74 731.867 1077.09 732.329 1077.54 732.656C1077.99 732.973 1078.5 733.132 1079.08 733.132ZM1088.03 735.33L1091.54 723.304H1092.7L1089.19 735.33H1088.03ZM1098.81 734V725.516L1097.23 725.866V725.054L1099.2 724.2H1100V734H1098.81ZM1101.92 734V733.174C1102.58 732.651 1103.21 732.124 1103.79 731.592C1104.39 731.051 1104.92 730.519 1105.38 729.996C1105.84 729.473 1106.21 728.96 1106.47 728.456C1106.74 727.952 1106.87 727.467 1106.87 727C1106.87 726.655 1106.81 726.333 1106.69 726.034C1106.58 725.735 1106.39 725.497 1106.13 725.32C1105.87 725.133 1105.52 725.04 1105.07 725.04C1104.64 725.04 1104.28 725.138 1103.99 725.334C1103.7 725.521 1103.48 725.773 1103.33 726.09C1103.19 726.407 1103.12 726.748 1103.12 727.112H1101.99C1101.99 726.468 1102.12 725.917 1102.39 725.46C1102.66 724.993 1103.03 724.639 1103.5 724.396C1103.97 724.153 1104.49 724.032 1105.08 724.032C1105.95 724.032 1106.66 724.279 1107.21 724.774C1107.77 725.259 1108.05 725.987 1108.05 726.958C1108.05 727.537 1107.9 728.111 1107.62 728.68C1107.33 729.24 1106.96 729.786 1106.51 730.318C1106.06 730.841 1105.58 731.331 1105.07 731.788C1104.56 732.245 1104.09 732.656 1103.65 733.02H1108.39V734H1101.92Z" fill="black"/>
<path opacity="0.4" d="M1181 734V725.516L1179.42 725.866V725.054L1181.39 724.2H1182.19V734H1181ZM1185.23 734V725.516L1183.64 725.866V725.054L1185.62 724.2H1186.42V734H1185.23ZM1191.55 735.33L1195.06 723.304H1196.22L1192.71 735.33H1191.55ZM1202.33 734V725.516L1200.75 725.866V725.054L1202.72 724.2H1203.52V734H1202.33ZM1205.43 734V733.174C1206.1 732.651 1206.72 732.124 1207.31 731.592C1207.91 731.051 1208.44 730.519 1208.89 729.996C1209.36 729.473 1209.72 728.96 1209.98 728.456C1210.26 727.952 1210.39 727.467 1210.39 727C1210.39 726.655 1210.33 726.333 1210.21 726.034C1210.1 725.735 1209.91 725.497 1209.65 725.32C1209.39 725.133 1209.03 725.04 1208.58 725.04C1208.16 725.04 1207.8 725.138 1207.51 725.334C1207.22 725.521 1207 725.773 1206.85 726.09C1206.71 726.407 1206.64 726.748 1206.64 727.112H1205.5C1205.5 726.468 1205.64 725.917 1205.91 725.46C1206.18 724.993 1206.55 724.639 1207.02 724.396C1207.48 724.153 1208.01 724.032 1208.6 724.032C1209.47 724.032 1210.18 724.279 1210.73 724.774C1211.29 725.259 1211.57 725.987 1211.57 726.958C1211.57 727.537 1211.42 728.111 1211.13 728.68C1210.84 729.24 1210.47 729.786 1210.03 730.318C1209.58 730.841 1209.1 731.331 1208.58 731.788C1208.08 732.245 1207.61 732.656 1207.17 733.02H1211.9V734H1205.43Z" fill="black"/>
<path opacity="0.4" d="M1290 734V725.516L1288.42 725.866V725.054L1290.39 724.2H1291.19V734H1290ZM1293.11 734V733.174C1293.77 732.651 1294.39 732.124 1294.98 731.592C1295.58 731.051 1296.11 730.519 1296.56 729.996C1297.03 729.473 1297.4 728.96 1297.66 728.456C1297.93 727.952 1298.06 727.467 1298.06 727C1298.06 726.655 1298 726.333 1297.88 726.034C1297.77 725.735 1297.58 725.497 1297.32 725.32C1297.06 725.133 1296.7 725.04 1296.26 725.04C1295.83 725.04 1295.47 725.138 1295.18 725.334C1294.89 725.521 1294.67 725.773 1294.52 726.09C1294.38 726.407 1294.31 726.748 1294.31 727.112H1293.18C1293.18 726.468 1293.31 725.917 1293.58 725.46C1293.85 724.993 1294.22 724.639 1294.69 724.396C1295.16 724.153 1295.68 724.032 1296.27 724.032C1297.14 724.032 1297.85 724.279 1298.4 724.774C1298.96 725.259 1299.24 725.987 1299.24 726.958C1299.24 727.537 1299.09 728.111 1298.8 728.68C1298.52 729.24 1298.15 729.786 1297.7 730.318C1297.25 730.841 1296.77 731.331 1296.26 731.788C1295.75 732.245 1295.28 732.656 1294.84 733.02H1299.57V734H1293.11ZM1304.33 735.33L1307.85 723.304H1309.01L1305.5 735.33H1304.33ZM1315.12 734V725.516L1313.54 725.866V725.054L1315.51 724.2H1316.31V734H1315.12ZM1318.22 734V733.174C1318.88 732.651 1319.51 732.124 1320.1 731.592C1320.7 731.051 1321.22 730.519 1321.68 729.996C1322.15 729.473 1322.51 728.96 1322.77 728.456C1323.04 727.952 1323.18 727.467 1323.18 727C1323.18 726.655 1323.12 726.333 1323 726.034C1322.88 725.735 1322.7 725.497 1322.44 725.32C1322.17 725.133 1321.82 725.04 1321.37 725.04C1320.94 725.04 1320.58 725.138 1320.29 725.334C1320 725.521 1319.79 725.773 1319.64 726.09C1319.5 726.407 1319.43 726.748 1319.43 727.112H1318.29C1318.29 726.468 1318.43 725.917 1318.7 725.46C1318.97 724.993 1319.34 724.639 1319.8 724.396C1320.27 724.153 1320.8 724.032 1321.39 724.032C1322.25 724.032 1322.96 724.279 1323.51 724.774C1324.07 725.259 1324.35 725.987 1324.35 726.958C1324.35 727.537 1324.21 728.111 1323.92 728.68C1323.63 729.24 1323.26 729.786 1322.81 730.318C1322.37 730.841 1321.89 731.331 1321.37 731.788C1320.87 732.245 1320.4 732.656 1319.96 733.02H1324.69V734H1318.22Z" fill="black"/>
</g>
<g clip-path="url(#clip1_1_5)">
<path opacity="0.4" d="M31.848 105L35.74 96.208H30.364V95.2H36.944V96.082L33.094 105H31.848ZM42.1314 105.168C41.2634 105.168 40.5121 104.958 39.8774 104.538C39.2521 104.109 38.7714 103.516 38.4354 102.76C38.0994 101.995 37.9314 101.108 37.9314 100.1C37.9314 99.092 38.0994 98.21 38.4354 97.454C38.7714 96.6887 39.2521 96.096 39.8774 95.676C40.5121 95.2467 41.2634 95.032 42.1314 95.032C42.9994 95.032 43.7461 95.2467 44.3714 95.676C44.9968 96.096 45.4774 96.6887 45.8134 97.454C46.1494 98.21 46.3174 99.092 46.3174 100.1C46.3174 101.108 46.1494 101.995 45.8134 102.76C45.4774 103.516 44.9968 104.109 44.3714 104.538C43.7461 104.958 42.9994 105.168 42.1314 105.168ZM42.1314 104.132C42.7008 104.132 43.2094 103.973 43.6574 103.656C44.1148 103.329 44.4694 102.867 44.7214 102.27C44.9828 101.663 45.1134 100.94 45.1134 100.1C45.1134 99.26 44.9828 98.5413 44.7214 97.944C44.4694 97.3467 44.1148 96.8893 43.6574 96.572C43.2094 96.2453 42.7008 96.082 42.1314 96.082C41.5528 96.082 41.0394 96.2453 40.5914 96.572C40.1434 96.8893 39.7888 97.3467 39.5274 97.944C39.2661 98.5413 39.1354 99.26 39.1354 100.1C39.1354 100.94 39.2661 101.663 39.5274 102.27C39.7888 102.867 40.1434 103.329 40.5914 103.656C41.0394 103.973 41.5528 104.132 42.1314 104.132ZM51.8385 105.168C50.9705 105.168 50.2191 104.958 49.5845 104.538C48.9591 104.109 48.4785 103.516 48.1425 102.76C47.8065 101.995 47.6385 101.108 47.6385 100.1C47.6385 99.092 47.8065 98.21 48.1425 97.454C48.4785 96.6887 48.9591 96.096 49.5845 95.676C50.2191 95.2467 50.9705 95.032 51.8385 95.032C52.7065 95.032 53.4531 95.2467 54.0785 95.676C54.7038 96.096 55.1845 96.6887 55.5205 97.454C55.8565 98.21 56.0245 99.092 56.0245 100.1C56.0245 101.108 55.8565 101.995 55.5205 102.76C55.1845 103.516 54.7038 104.109 54.0785 104.538C53.4531 104.958 52.7065 105.168 51.8385 105.168ZM51.8385 104.132C52.4078 104.132 52.9165 103.973 53.3645 103.656C53.8218 103.329 54.1765 102.867 54.4285 102.27C54.6898 101.663 54.8205 100.94 54.8205 100.1C54.8205 99.26 54.6898 98.5413 54.4285 97.944C54.1765 97.3467 53.8218 96.8893 53.3645 96.572C52.9165 96.2453 52.4078 96.082 51.8385 96.082C51.2598 96.082 50.7465 96.2453 50.2985 96.572C49.8505 96.8893 49.4958 97.3467 49.2345 97.944C48.9731 98.5413 48.8425 99.26 48.8425 100.1C48.8425 100.94 48.9731 101.663 49.2345 102.27C49.4958 102.867 49.8505 103.329 50.2985 103.656C50.7465 103.973 51.2598 104.132 51.8385 104.132Z" fill="black"/>
<path opacity="0.4" d="M34.564 203.168C33.8547 203.168 33.2573 203.037 32.772 202.776C32.2867 202.505 31.8947 202.146 31.596 201.698C31.3067 201.25 31.092 200.751 30.952 200.2C30.8213 199.64 30.756 199.071 30.756 198.492C30.756 197.409 30.9053 196.462 31.204 195.65C31.5027 194.829 31.932 194.189 32.492 193.732C33.0613 193.265 33.7473 193.032 34.55 193.032C35.166 193.032 35.6933 193.153 36.132 193.396C36.5707 193.639 36.916 193.965 37.168 194.376C37.4293 194.777 37.5927 195.225 37.658 195.72H36.566C36.4633 195.188 36.2347 194.777 35.88 194.488C35.5253 194.199 35.0773 194.054 34.536 194.054C33.7987 194.054 33.178 194.404 32.674 195.104C32.1793 195.795 31.9133 196.877 31.876 198.352C32.1 197.913 32.4547 197.535 32.94 197.218C33.4347 196.891 34.0273 196.728 34.718 196.728C35.278 196.728 35.8007 196.859 36.286 197.12C36.7807 197.381 37.182 197.75 37.49 198.226C37.798 198.693 37.952 199.243 37.952 199.878C37.952 200.429 37.8167 200.956 37.546 201.46C37.2753 201.964 36.8833 202.375 36.37 202.692C35.866 203.009 35.264 203.168 34.564 203.168ZM34.48 202.132C34.9187 202.132 35.3107 202.039 35.656 201.852C36.0013 201.665 36.272 201.409 36.468 201.082C36.664 200.746 36.762 200.363 36.762 199.934C36.762 199.271 36.5427 198.744 36.104 198.352C35.6747 197.951 35.1333 197.75 34.48 197.75C34.0413 197.75 33.6493 197.853 33.304 198.058C32.9587 198.254 32.6833 198.52 32.478 198.856C32.282 199.192 32.184 199.556 32.184 199.948C32.184 200.368 32.282 200.746 32.478 201.082C32.6833 201.409 32.9587 201.665 33.304 201.852C33.6493 202.039 34.0413 202.132 34.48 202.132ZM43.6764 203.168C42.8084 203.168 42.057 202.958 41.4224 202.538C40.797 202.109 40.3164 201.516 39.9804 200.76C39.6444 199.995 39.4764 199.108 39.4764 198.1C39.4764 197.092 39.6444 196.21 39.9804 195.454C40.3164 194.689 40.797 194.096 41.4224 193.676C42.057 193.247 42.8084 193.032 43.6764 193.032C44.5444 193.032 45.291 193.247 45.9164 193.676C46.5417 194.096 47.0224 194.689 47.3584 195.454C47.6944 196.21 47.8624 197.092 47.8624 198.1C47.8624 199.108 47.6944 199.995 47.3584 200.76C47.0224 201.516 46.5417 202.109 45.9164 202.538C45.291 202.958 44.5444 203.168 43.6764 203.168ZM43.6764 202.132C44.2457 202.132 44.7544 201.973 45.2024 201.656C45.6597 201.329 46.0144 200.867 46.2664 200.27C46.5277 199.663 46.6584 198.94 46.6584 198.1C46.6584 197.26 46.5277 196.541 46.2664 195.944C46.0144 195.347 45.6597 194.889 45.2024 194.572C44.7544 194.245 44.2457 194.082 43.6764 194.082C43.0977 194.082 42.5844 194.245 42.1364 194.572C41.6884 194.889 41.3337 195.347 41.0724 195.944C40.811 196.541 40.6804 197.26 40.6804 198.1C40.6804 198.94 40.811 199.663 41.0724 200.27C41.3337 200.867 41.6884 201.329 42.1364 201.656C42.5844 201.973 43.0977 202.132 43.6764 202.132ZM53.3834 203.168C52.5154 203.168 51.7641 202.958 51.1294 202.538C50.5041 202.109 50.0234 201.516 49.6874 200.76C49.3514 199.995 49.1834 199.108 49.1834 198.1C49.1834 197.092 49.3514 196.21 49.6874 195.454C50.0234 194.689 50.5041 194.096 51.1294 193.676C51.7641 193.247 52.5154 193.032 53.3834 193.032C54.2514 193.032 54.9981 193.247 55.6234 193.676C56.2487 194.096 56.7294 194.689 57.0654 195.454C57.4014 196.21 57.5694 197.092 57.5694 198.1C57.5694 199.108 57.4014 199.995 57.0654 200.76C56.7294 201.516 56.2487 202.109 55.6234 202.538C54.9981 202.958 54.2514 203.168 53.3834 203.168ZM53.3834 202.132C53.9527 202.132 54.4614 201.973 54.9094 201.656C55.3667 201.329 55.7214 200.867 55.9734 200.27C56.2347 199.663 56.3654 198.94 56.3654 198.1C56.3654 197.26 56.2347 196.541 55.9734 195.944C55.7214 195.347 55.3667 194.889 54.9094 194.572C54.4614 194.245 53.9527 194.082 53.3834 194.082C52.8047 194.082 52.2914 194.245 51.8434 194.572C51.3954 194.889 51.0407 195.347 50.7794 195.944C50.5181 196.541 50.3874 197.26 50.3874 198.1C50.3874 198.94 50.5181 199.663 50.7794 200.27C51.0407 200.867 51.3954 201.329 51.8434 201.656C52.2914 201.973 52.8047 202.132 53.3834 202.132Z" fill="black"/>
<path opacity="0.4" d="M34.368 301.168C33.696 301.168 33.1127 301.047 32.618 300.804C32.1233 300.561 31.7267 300.23 31.428 299.81C31.1387 299.381 30.9613 298.895 30.896 298.354H32.044C32.156 298.895 32.4173 299.334 32.828 299.67C33.2387 299.997 33.7567 300.16 34.382 300.16C34.8487 300.16 35.25 300.053 35.586 299.838C35.922 299.614 36.1787 299.315 36.356 298.942C36.5427 298.569 36.636 298.153 36.636 297.696C36.636 296.968 36.4307 296.38 36.02 295.932C35.6093 295.484 35.0773 295.26 34.424 295.26C33.8827 295.26 33.4207 295.381 33.038 295.624C32.6553 295.867 32.3753 296.184 32.198 296.576H31.078L31.918 291.2H37.056V292.222H32.828L32.254 295.204C32.478 294.933 32.786 294.709 33.178 294.532C33.5793 294.355 34.0367 294.266 34.55 294.266C35.194 294.266 35.754 294.415 36.23 294.714C36.7153 295.013 37.0933 295.419 37.364 295.932C37.6347 296.445 37.77 297.029 37.77 297.682C37.77 298.307 37.6347 298.886 37.364 299.418C37.1027 299.95 36.7153 300.375 36.202 300.692C35.698 301.009 35.0867 301.168 34.368 301.168ZM43.4303 301.168C42.5623 301.168 41.8109 300.958 41.1763 300.538C40.5509 300.109 40.0703 299.516 39.7343 298.76C39.3983 297.995 39.2303 297.108 39.2303 296.1C39.2303 295.092 39.3983 294.21 39.7343 293.454C40.0703 292.689 40.5509 292.096 41.1763 291.676C41.8109 291.247 42.5623 291.032 43.4303 291.032C44.2983 291.032 45.0449 291.247 45.6703 291.676C46.2956 292.096 46.7763 292.689 47.1123 293.454C47.4483 294.21 47.6163 295.092 47.6163 296.1C47.6163 297.108 47.4483 297.995 47.1123 298.76C46.7763 299.516 46.2956 300.109 45.6703 300.538C45.0449 300.958 44.2983 301.168 43.4303 301.168ZM43.4303 300.132C43.9996 300.132 44.5083 299.973 44.9563 299.656C45.4136 299.329 45.7683 298.867 46.0203 298.27C46.2816 297.663 46.4123 296.94 46.4123 296.1C46.4123 295.26 46.2816 294.541 46.0203 293.944C45.7683 293.347 45.4136 292.889 44.9563 292.572C44.5083 292.245 43.9996 292.082 43.4303 292.082C42.8516 292.082 42.3383 292.245 41.8903 292.572C41.4423 292.889 41.0876 293.347 40.8263 293.944C40.5649 294.541 40.4343 295.26 40.4343 296.1C40.4343 296.94 40.5649 297.663 40.8263 298.27C41.0876 298.867 41.4423 299.329 41.8903 299.656C42.3383 299.973 42.8516 300.132 43.4303 300.132ZM53.1373 301.168C52.2693 301.168 51.518 300.958 50.8833 300.538C50.258 300.109 49.7773 299.516 49.4413 298.76C49.1053 297.995 48.9373 297.108 48.9373 296.1C48.9373 295.092 49.1053 294.21 49.4413 293.454C49.7773 292.689 50.258 292.096 50.8833 291.676C51.518 291.247 52.2693 291.032 53.1373 291.032C54.0053 291.032 54.752 291.247 55.3773 291.676C56.0026 292.096 56.4833 292.689 56.8193 293.454C57.1553 294.21 57.3233 295.092 57.3233 296.1C57.3233 297.108 57.1553 297.995 56.8193 298.76C56.4833 299.516 56.0026 300.109 55.3773 300.538C54.752 300.958 54.0053 301.168 53.1373 301.168ZM53.1373 300.132C53.7066 300.132 54.2153 299.973 54.6633 299.656C55.1206 299.329 55.4753 298.867 55.7273 298.27C55.9886 297.663 56.1193 296.94 56.1193 296.1C56.1193 295.26 55.9886 294.541 55.7273 293.944C55.4753 293.347 55.1206 292.889 54.6633 292.572C54.2153 292.245 53.7066 292.082 53.1373 292.082C52.5586 292.082 52.0453 292.245 51.5973 292.572C51.1493 292.889 50.7946 293.347 50.5333 293.944C50.272 294.541 50.1413 295.26 50.1413 296.1C50.1413 296.94 50.272 297.663 50.5333 298.27C50.7946 298.867 51.1493 299.329 51.5973 299.656C52.0453 299.973 52.5586 300.132 53.1373 300.132Z" fill="black"/>
<path opacity="0.4" d="M35.474 399V396.9H30.504V395.99L35.264 389.2H36.636V395.864H38.092V396.9H36.636V399H35.474ZM31.806 395.864H35.53V390.502L31.806 395.864ZM43.3346 399.168C42.4666 399.168 41.7152 398.958 41.0806 398.538C40.4552 398.109 39.9746 397.516 39.6386 396.76C39.3026 395.995 39.1346 395.108 39.1346 394.1C39.1346 393.092 39.3026 392.21 39.6386 391.454C39.9746 390.689 40.4552 390.096 41.0806 389.676C41.7152 389.247 42.4666 389.032 43.3346 389.032C44.2026 389.032 44.9492 389.247 45.5746 389.676C46.1999 390.096 46.6806 390.689 47.0166 391.454C47.3526 392.21 47.5206 393.092 47.5206 394.1C47.5206 395.108 47.3526 395.995 47.0166 396.76C46.6806 397.516 46.1999 398.109 45.5746 398.538C44.9492 398.958 44.2026 399.168 43.3346 399.168ZM43.3346 398.132C43.9039 398.132 44.4126 397.973 44.8606 397.656C45.3179 397.329 45.6726 396.867 45.9246 396.27C46.1859 395.663 46.3166 394.94 46.3166 394.1C46.3166 393.26 46.1859 392.541 45.9246 391.944C45.6726 391.347 45.3179 390.889 44.8606 390.572C44.4126 390.245 43.9039 390.082 43.3346 390.082C42.7559 390.082 42.2426 390.245 41.7946 390.572C41.3466 390.889 40.9919 391.347 40.7306 391.944C40.4692 392.541 40.3386 393.26 40.3386 394.1C40.3386 394.94 40.4692 395.663 40.7306 396.27C40.9919 396.867 41.3466 397.329 41.7946 397.656C42.2426 397.973 42.7559 398.132 43.3346 398.132ZM53.0416 399.168C52.1736 399.168 51.4223 398.958 50.7876 398.538C50.1623 398.109 49.6816 397.516 49.3456 396.76C49.0096 395.995 48.8416 395.108 48.8416 394.1C48.8416 393.092 49.0096 392.21 49.3456 391.454C49.6816 390.689 50.1623 390.096 50.7876 389.676C51.4223 389.247 52.1736 389.032 53.0416 389.032C53.9096 389.032 54.6563 389.247 55.2816 389.676C55.9069 390.096 56.3876 390.689 56.7236 391.454C57.0596 392.21 57.2276 393.092 57.2276 394.1C57.2276 395.108 57.0596 395.995 56.7236 396.76C56.3876 397.516 55.9069 398.109 55.2816 398.538C54.6563 398.958 53.9096 399.168 53.0416 399.168ZM53.0416 398.132C53.6109 398.132 54.1196 397.973 54.5676 397.656C55.0249 397.329 55.3796 396.867 55.6316 396.27C55.8929 395.663 56.0236 394.94 56.0236 394.1C56.0236 393.26 55.8929 392.541 55.6316 391.944C55.3796 391.347 55.0249 390.889 54.5676 390.572C54.1196 390.245 53.6109 390.082 53.0416 390.082C52.4629 390.082 51.9496 390.245 51.5016 390.572C51.0536 390.889 50.6989 391.347 50.4376 391.944C50.1763 392.541 50.0456 393.26 50.0456 394.1C50.0456 394.94 50.1763 395.663 50.4376 396.27C50.6989 396.867 51.0536 397.329 51.5016 397.656C51.9496 397.973 52.4629 398.132 53.0416 398.132Z" fill="black"/>
<path opacity="0.4" d="M34.088 497.168C33.4627 497.168 32.898 497.056 32.394 496.832C31.89 496.599 31.484 496.253 31.176 495.796C30.8773 495.339 30.7187 494.769 30.7 494.088H31.89C31.8993 494.648 32.0953 495.133 32.478 495.544C32.8607 495.945 33.3973 496.146 34.088 496.146C34.7787 496.146 35.2967 495.955 35.642 495.572C35.9967 495.189 36.174 494.727 36.174 494.186C36.174 493.729 36.062 493.355 35.838 493.066C35.6233 492.777 35.3293 492.562 34.956 492.422C34.592 492.282 34.1907 492.212 33.752 492.212H33.024V491.218H33.752C34.3867 491.218 34.8813 491.073 35.236 490.784C35.6 490.495 35.782 490.089 35.782 489.566C35.782 489.127 35.6373 488.768 35.348 488.488C35.068 488.199 34.648 488.054 34.088 488.054C33.5467 488.054 33.1127 488.217 32.786 488.544C32.4593 488.861 32.2773 489.263 32.24 489.748H31.05C31.078 489.216 31.218 488.745 31.47 488.334C31.7313 487.923 32.086 487.606 32.534 487.382C32.982 487.149 33.5 487.032 34.088 487.032C34.7227 487.032 35.25 487.144 35.67 487.368C36.0993 487.592 36.4213 487.891 36.636 488.264C36.86 488.637 36.972 489.048 36.972 489.496C36.972 489.991 36.8367 490.443 36.566 490.854C36.2953 491.255 35.8893 491.526 35.348 491.666C35.9267 491.787 36.4073 492.063 36.79 492.492C37.1727 492.921 37.364 493.486 37.364 494.186C37.364 494.727 37.238 495.227 36.986 495.684C36.7433 496.132 36.3793 496.491 35.894 496.762C35.4087 497.033 34.8067 497.168 34.088 497.168ZM43.0885 497.168C42.2205 497.168 41.4691 496.958 40.8345 496.538C40.2091 496.109 39.7285 495.516 39.3925 494.76C39.0565 493.995 38.8885 493.108 38.8885 492.1C38.8885 491.092 39.0565 490.21 39.3925 489.454C39.7285 488.689 40.2091 488.096 40.8345 487.676C41.4691 487.247 42.2205 487.032 43.0885 487.032C43.9565 487.032 44.7031 487.247 45.3285 487.676C45.9538 488.096 46.4345 488.689 46.7705 489.454C47.1065 490.21 47.2745 491.092 47.2745 492.1C47.2745 493.108 47.1065 493.995 46.7705 494.76C46.4345 495.516 45.9538 496.109 45.3285 496.538C44.7031 496.958 43.9565 497.168 43.0885 497.168ZM43.0885 496.132C43.6578 496.132 44.1665 495.973 44.6145 495.656C45.0718 495.329 45.4265 494.867 45.6785 494.27C45.9398 493.663 46.0705 492.94 46.0705 492.1C46.0705 491.26 45.9398 490.541 45.6785 489.944C45.4265 489.347 45.0718 488.889 44.6145 488.572C44.1665 488.245 43.6578 488.082 43.0885 488.082C42.5098 488.082 41.9965 488.245 41.5485 488.572C41.1005 488.889 40.7458 489.347 40.4845 489.944C40.2231 490.541 40.0925 491.26 40.0925 492.1C40.0925 492.94 40.2231 493.663 40.4845 494.27C40.7458 494.867 41.1005 495.329 41.5485 495.656C41.9965 495.973 42.5098 496.132 43.0885 496.132ZM52.7955 497.168C51.9275 497.168 51.1762 496.958 50.5415 496.538C49.9162 496.109 49.4355 495.516 49.0995 494.76C48.7635 493.995 48.5955 493.108 48.5955 492.1C48.5955 491.092 48.7635 490.21 49.0995 489.454C49.4355 488.689 49.9162 488.096 50.5415 487.676C51.1762 487.247 51.9275 487.032 52.7955 487.032C53.6635 487.032 54.4102 487.247 55.0355 487.676C55.6608 488.096 56.1415 488.689 56.4775 489.454C56.8135 490.21 56.9815 491.092 56.9815 492.1C56.9815 493.108 56.8135 493.995 56.4775 494.76C56.1415 495.516 55.6608 496.109 55.0355 496.538C54.4102 496.958 53.6635 497.168 52.7955 497.168ZM52.7955 496.132C53.3648 496.132 53.8735 495.973 54.3215 495.656C54.7788 495.329 55.1335 494.867 55.3855 494.27C55.6468 493.663 55.7775 492.94 55.7775 492.1C55.7775 491.26 55.6468 490.541 55.3855 489.944C55.1335 489.347 54.7788 488.889 54.3215 488.572C53.8735 488.245 53.3648 488.082 52.7955 488.082C52.2168 488.082 51.7035 488.245 51.2555 488.572C50.8075 488.889 50.4528 489.347 50.1915 489.944C49.9302 490.541 49.7995 491.26 49.7995 492.1C49.7995 492.94 49.9302 493.663 50.1915 494.27C50.4528 494.867 50.8075 495.329 51.2555 495.656C51.7035 495.973 52.2168 496.132 52.7955 496.132Z" fill="black"/>
<path opacity="0.4" d="M30.882 595V594.174C31.5447 593.651 32.17 593.124 32.758 592.592C33.3553 592.051 33.8827 591.519 34.34 590.996C34.8067 590.473 35.1707 589.96 35.432 589.456C35.7027 588.952 35.838 588.467 35.838 588C35.838 587.655 35.7773 587.333 35.656 587.034C35.544 586.735 35.3573 586.497 35.096 586.32C34.8347 586.133 34.48 586.04 34.032 586.04C33.6027 586.04 33.2433 586.138 32.954 586.334C32.6647 586.521 32.4453 586.773 32.296 587.09C32.156 587.407 32.086 587.748 32.086 588.112H30.952C30.952 587.468 31.0873 586.917 31.358 586.46C31.6287 585.993 31.9973 585.639 32.464 585.396C32.9307 585.153 33.458 585.032 34.046 585.032C34.914 585.032 35.6233 585.279 36.174 585.774C36.734 586.259 37.014 586.987 37.014 587.958C37.014 588.537 36.8693 589.111 36.58 589.68C36.2907 590.24 35.922 590.786 35.474 591.318C35.026 591.841 34.5453 592.331 34.032 592.788C33.528 593.245 33.0567 593.656 32.618 594.02H37.35V595H30.882ZM42.733 595.168C41.865 595.168 41.1137 594.958 40.479 594.538C39.8537 594.109 39.373 593.516 39.037 592.76C38.701 591.995 38.533 591.108 38.533 590.1C38.533 589.092 38.701 588.21 39.037 587.454C39.373 586.689 39.8537 586.096 40.479 585.676C41.1137 585.247 41.865 585.032 42.733 585.032C43.601 585.032 44.3477 585.247 44.973 585.676C45.5983 586.096 46.079 586.689 46.415 587.454C46.751 588.21 46.919 589.092 46.919 590.1C46.919 591.108 46.751 591.995 46.415 592.76C46.079 593.516 45.5983 594.109 44.973 594.538C44.3477 594.958 43.601 595.168 42.733 595.168ZM42.733 594.132C43.3023 594.132 43.811 593.973 44.259 593.656C44.7163 593.329 45.071 592.867 45.323 592.27C45.5843 591.663 45.715 590.94 45.715 590.1C45.715 589.26 45.5843 588.541 45.323 587.944C45.071 587.347 44.7163 586.889 44.259 586.572C43.811 586.245 43.3023 586.082 42.733 586.082C42.1543 586.082 41.641 586.245 41.193 586.572C40.745 586.889 40.3903 587.347 40.129 587.944C39.8677 588.541 39.737 589.26 39.737 590.1C39.737 590.94 39.8677 591.663 40.129 592.27C40.3903 592.867 40.745 593.329 41.193 593.656C41.641 593.973 42.1543 594.132 42.733 594.132ZM52.44 595.168C51.572 595.168 50.8207 594.958 50.186 594.538C49.5607 594.109 49.08 593.516 48.744 592.76C48.408 591.995 48.24 591.108 48.24 590.1C48.24 589.092 48.408 588.21 48.744 587.454C49.08 586.689 49.5607 586.096 50.186 585.676C50.8207 585.247 51.572 585.032 52.44 585.032C53.308 585.032 54.0547 585.247 54.68 585.676C55.3054 586.096 55.786 586.689 56.122 587.454C56.458 588.21 56.626 589.092 56.626 590.1C56.626 591.108 56.458 591.995 56.122 592.76C55.786 593.516 55.3054 594.109 54.68 594.538C54.0547 594.958 53.308 595.168 52.44 595.168ZM52.44 594.132C53.0094 594.132 53.518 593.973 53.966 593.656C54.4234 593.329 54.778 592.867 55.03 592.27C55.2914 591.663 55.422 590.94 55.422 590.1C55.422 589.26 55.2914 588.541 55.03 587.944C54.778 587.347 54.4234 586.889 53.966 586.572C53.518 586.245 53.0094 586.082 52.44 586.082C51.8614 586.082 51.348 586.245 50.9 586.572C50.452 586.889 50.0974 587.347 49.836 587.944C49.5747 588.541 49.444 589.26 49.444 590.1C49.444 590.94 49.5747 591.663 49.836 592.27C50.0974 592.867 50.452 593.329 50.9 593.656C51.348 593.973 51.8614 594.132 52.44 594.132Z" fill="black"/>
<path opacity="0.4" d="M32.002 693V684.516L30.42 684.866V684.054L32.394 683.2H33.192V693H32.002ZM39.0826 693.168C38.2146 693.168 37.4633 692.958 36.8286 692.538C36.2033 692.109 35.7226 691.516 35.3866 690.76C35.0506 689.995 34.8826 689.108 34.8826 688.1C34.8826 687.092 35.0506 686.21 35.3866 685.454C35.7226 684.689 36.2033 684.096 36.8286 683.676C37.4633 683.247 38.2146 683.032 39.0826 683.032C39.9506 683.032 40.6973 683.247 41.3226 683.676C41.9479 684.096 42.4286 684.689 42.7646 685.454C43.1006 686.21 43.2686 687.092 43.2686 688.1C43.2686 689.108 43.1006 689.995 42.7646 690.76C42.4286 691.516 41.9479 692.109 41.3226 692.538C40.6973 692.958 39.9506 693.168 39.0826 693.168ZM39.0826 692.132C39.6519 692.132 40.1606 691.973 40.6086 691.656C41.0659 691.329 41.4206 690.867 41.6726 690.27C41.9339 689.663 42.0646 688.94 42.0646 688.1C42.0646 687.26 41.9339 686.541 41.6726 685.944C41.4206 685.347 41.0659 684.889 40.6086 684.572C40.1606 684.245 39.6519 684.082 39.0826 684.082C38.5039 684.082 37.9906 684.245 37.5426 684.572C37.0946 684.889 36.7399 685.347 36.4786 685.944C36.2173 686.541 36.0866 687.26 36.0866 688.1C36.0866 688.94 36.2173 689.663 36.4786 690.27C36.7399 690.867 37.0946 691.329 37.5426 691.656C37.9906 691.973 38.5039 692.132 39.0826 692.132ZM48.7896 693.168C47.9216 693.168 47.1703 692.958 46.5356 692.538C45.9103 692.109 45.4296 691.516 45.0936 690.76C44.7576 689.995 44.5896 689.108 44.5896 688.1C44.5896 687.092 44.7576 686.21 45.0936 685.454C45.4296 684.689 45.9103 684.096 46.5356 683.676C47.1703 683.247 47.9216 683.032 48.7896 683.032C49.6576 683.032 50.4043 683.247 51.0296 683.676C51.655 684.096 52.1356 684.689 52.4716 685.454C52.8076 686.21 52.9756 687.092 52.9756 688.1C52.9756 689.108 52.8076 689.995 52.4716 690.76C52.1356 691.516 51.655 692.109 51.0296 692.538C50.4043 692.958 49.6576 693.168 48.7896 693.168ZM48.7896 692.132C49.359 692.132 49.8676 691.973 50.3156 691.656C50.773 691.329 51.1276 690.867 51.3796 690.27C51.641 689.663 51.7716 688.94 51.7716 688.1C51.7716 687.26 51.641 686.541 51.3796 685.944C51.1276 685.347 50.773 684.889 50.3156 684.572C49.8676 684.245 49.359 684.082 48.7896 684.082C48.211 684.082 47.6976 684.245 47.2496 684.572C46.8016 684.889 46.447 685.347 46.1856 685.944C45.9243 686.541 45.7936 687.26 45.7936 688.1C45.7936 688.94 45.9243 689.663 46.1856 690.27C46.447 690.867 46.8016 691.329 47.2496 691.656C47.6976 691.973 48.211 692.132 48.7896 692.132Z" fill="black"/>
</g>
<path fill-rule="evenodd" clip-rule="evenodd" d="M1044 57C1047.87 57 1051 53.866 1051 50C1051 46.134 1047.87 43 1044 43C1040.13 43 1037 46.134 1037 50C1037 53.866 1040.13 57 1044 57Z" fill="#4339F2"/>
<path d="M1058.04 55V45.2H1061.2C1061.97 45.2 1062.59 45.326 1063.08 45.578C1063.56 45.83 1063.92 46.1753 1064.15 46.614C1064.39 47.0527 1064.5 47.538 1064.5 48.07C1064.5 48.686 1064.34 49.2413 1064 49.736C1063.67 50.2307 1063.16 50.5807 1062.46 50.786L1064.6 55H1063.22L1061.23 50.954H1061.14H1059.21V55H1058.04ZM1059.21 50.03H1061.12C1061.87 50.03 1062.42 49.848 1062.77 49.484C1063.11 49.12 1063.29 48.6533 1063.29 48.084C1063.29 47.5053 1063.11 47.048 1062.77 46.712C1062.43 46.3667 1061.88 46.194 1061.1 46.194H1059.21V50.03ZM1068.96 55.168C1068.3 55.168 1067.71 55.0187 1067.2 54.72C1066.69 54.412 1066.28 53.9873 1065.98 53.446C1065.69 52.9047 1065.55 52.2653 1065.55 51.528C1065.55 50.8 1065.69 50.1653 1065.98 49.624C1066.27 49.0733 1066.67 48.6487 1067.19 48.35C1067.71 48.042 1068.31 47.888 1068.99 47.888C1069.66 47.888 1070.24 48.042 1070.73 48.35C1071.22 48.6487 1071.6 49.0453 1071.86 49.54C1072.12 50.0347 1072.25 50.5667 1072.25 51.136C1072.25 51.2387 1072.25 51.3413 1072.24 51.444C1072.24 51.5467 1072.24 51.6633 1072.24 51.794H1066.71C1066.74 52.326 1066.86 52.7693 1067.07 53.124C1067.3 53.4693 1067.57 53.7307 1067.9 53.908C1068.24 54.0853 1068.59 54.174 1068.96 54.174C1069.45 54.174 1069.85 54.062 1070.18 53.838C1070.51 53.614 1070.75 53.3107 1070.9 52.928H1072.06C1071.87 53.572 1071.51 54.1087 1070.98 54.538C1070.46 54.958 1069.78 55.168 1068.96 55.168ZM1068.96 48.882C1068.4 48.882 1067.9 49.0547 1067.47 49.4C1067.04 49.736 1066.79 50.2307 1066.72 50.884H1071.09C1071.06 50.2587 1070.85 49.7687 1070.45 49.414C1070.05 49.0593 1069.55 48.882 1068.96 48.882ZM1076.47 55.168C1075.64 55.168 1074.95 54.958 1074.4 54.538C1073.85 54.118 1073.53 53.5487 1073.43 52.83H1074.64C1074.71 53.194 1074.9 53.5113 1075.21 53.782C1075.53 54.0433 1075.95 54.174 1076.49 54.174C1076.98 54.174 1077.34 54.0713 1077.58 53.866C1077.81 53.6513 1077.93 53.3993 1077.93 53.11C1077.93 52.69 1077.77 52.41 1077.47 52.27C1077.17 52.13 1076.74 52.004 1076.19 51.892C1075.82 51.8173 1075.45 51.71 1075.07 51.57C1074.7 51.43 1074.39 51.234 1074.13 50.982C1073.88 50.7207 1073.76 50.38 1073.76 49.96C1073.76 49.3533 1073.98 48.8587 1074.43 48.476C1074.89 48.084 1075.5 47.888 1076.28 47.888C1077.01 47.888 1077.62 48.0747 1078.08 48.448C1078.56 48.812 1078.83 49.3347 1078.91 50.016H1077.75C1077.7 49.6613 1077.55 49.386 1077.28 49.19C1077.03 48.9847 1076.69 48.882 1076.26 48.882C1075.84 48.882 1075.52 48.9707 1075.28 49.148C1075.06 49.3253 1074.95 49.5587 1074.95 49.848C1074.95 50.128 1075.09 50.3473 1075.38 50.506C1075.68 50.6647 1076.08 50.8 1076.58 50.912C1077.01 51.0053 1077.42 51.122 1077.8 51.262C1078.19 51.3927 1078.51 51.5933 1078.75 51.864C1079.01 52.1253 1079.13 52.508 1079.13 53.012C1079.14 53.6373 1078.9 54.1553 1078.42 54.566C1077.94 54.9673 1077.29 55.168 1076.47 55.168ZM1083.24 55C1082.61 55 1082.11 54.846 1081.74 54.538C1081.38 54.23 1081.2 53.6747 1081.2 52.872V49.05H1079.99V48.056H1081.2L1081.35 46.39H1082.37V48.056H1084.42V49.05H1082.37V52.872C1082.37 53.3107 1082.46 53.6093 1082.64 53.768C1082.82 53.9173 1083.13 53.992 1083.58 53.992H1084.31V55H1083.24ZM1085.91 55V44.92H1087.09V55H1085.91ZM1092.14 55.168C1091.47 55.168 1090.89 55.0187 1090.37 54.72C1089.86 54.412 1089.45 53.9873 1089.15 53.446C1088.87 52.9047 1088.72 52.2653 1088.72 51.528C1088.72 50.8 1088.87 50.1653 1089.15 49.624C1089.44 49.0733 1089.85 48.6487 1090.36 48.35C1090.88 48.042 1091.48 47.888 1092.16 47.888C1092.84 47.888 1093.42 48.042 1093.9 48.35C1094.4 48.6487 1094.77 49.0453 1095.03 49.54C1095.3 50.0347 1095.43 50.5667 1095.43 51.136C1095.43 51.2387 1095.42 51.3413 1095.41 51.444C1095.41 51.5467 1095.41 51.6633 1095.41 51.794H1089.88C1089.91 52.326 1090.03 52.7693 1090.25 53.124C1090.47 53.4693 1090.75 53.7307 1091.07 53.908C1091.41 54.0853 1091.76 54.174 1092.14 54.174C1092.62 54.174 1093.03 54.062 1093.35 53.838C1093.68 53.614 1093.92 53.3107 1094.07 52.928H1095.23C1095.04 53.572 1094.68 54.1087 1094.15 54.538C1093.63 54.958 1092.96 55.168 1092.14 55.168ZM1092.14 48.882C1091.58 48.882 1091.08 49.0547 1090.64 49.4C1090.21 49.736 1089.96 50.2307 1089.9 50.884H1094.26C1094.24 50.2587 1094.02 49.7687 1093.62 49.414C1093.22 49.0593 1092.72 48.882 1092.14 48.882ZM1099.65 55.168C1098.81 55.168 1098.12 54.958 1097.57 54.538C1097.02 54.118 1096.7 53.5487 1096.61 52.83H1097.81C1097.89 53.194 1098.08 53.5113 1098.39 53.782C1098.7 54.0433 1099.13 54.174 1099.66 54.174C1100.15 54.174 1100.52 54.0713 1100.75 53.866C1100.98 53.6513 1101.1 53.3993 1101.1 53.11C1101.1 52.69 1100.95 52.41 1100.64 52.27C1100.34 52.13 1099.92 52.004 1099.37 51.892C1098.99 51.8173 1098.62 51.71 1098.25 51.57C1097.87 51.43 1097.56 51.234 1097.31 50.982C1097.06 50.7207 1096.93 50.38 1096.93 49.96C1096.93 49.3533 1097.15 48.8587 1097.6 48.476C1098.06 48.084 1098.67 47.888 1099.45 47.888C1100.19 47.888 1100.79 48.0747 1101.26 48.448C1101.73 48.812 1102.01 49.3347 1102.08 50.016H1100.92C1100.87 49.6613 1100.72 49.386 1100.46 49.19C1100.21 48.9847 1099.86 48.882 1099.44 48.882C1099.02 48.882 1098.69 48.9707 1098.46 49.148C1098.23 49.3253 1098.12 49.5587 1098.12 49.848C1098.12 50.128 1098.26 50.3473 1098.55 50.506C1098.85 50.6647 1099.25 50.8 1099.76 50.912C1100.19 51.0053 1100.59 51.122 1100.98 51.262C1101.37 51.3927 1101.68 51.5933 1101.93 51.864C1102.18 52.1253 1102.31 52.508 1102.31 53.012C1102.31 53.6373 1102.08 54.1553 1101.59 54.566C1101.12 54.9673 1100.47 55.168 1099.65 55.168ZM1106.65 55.168C1105.81 55.168 1105.12 54.958 1104.57 54.538C1104.02 54.118 1103.7 53.5487 1103.61 52.83H1104.81C1104.89 53.194 1105.08 53.5113 1105.39 53.782C1105.7 54.0433 1106.13 54.174 1106.66 54.174C1107.15 54.174 1107.52 54.0713 1107.75 53.866C1107.98 53.6513 1108.1 53.3993 1108.1 53.11C1108.1 52.69 1107.95 52.41 1107.64 52.27C1107.34 52.13 1106.92 52.004 1106.37 51.892C1105.99 51.8173 1105.62 51.71 1105.25 51.57C1104.87 51.43 1104.56 51.234 1104.31 50.982C1104.06 50.7207 1103.93 50.38 1103.93 49.96C1103.93 49.3533 1104.15 48.8587 1104.6 48.476C1105.06 48.084 1105.67 47.888 1106.45 47.888C1107.19 47.888 1107.79 48.0747 1108.26 48.448C1108.73 48.812 1109.01 49.3347 1109.08 50.016H1107.92C1107.87 49.6613 1107.72 49.386 1107.46 49.19C1107.21 48.9847 1106.86 48.882 1106.44 48.882C1106.02 48.882 1105.69 48.9707 1105.46 49.148C1105.23 49.3253 1105.12 49.5587 1105.12 49.848C1105.12 50.128 1105.26 50.3473 1105.55 50.506C1105.85 50.6647 1106.25 50.8 1106.76 50.912C1107.19 51.0053 1107.59 51.122 1107.98 51.262C1108.37 51.3927 1108.68 51.5933 1108.93 51.864C1109.18 52.1253 1109.31 52.508 1109.31 53.012C1109.31 53.6373 1109.08 54.1553 1108.59 54.566C1108.12 54.9673 1107.47 55.168 1106.65 55.168Z" fill="black"/>
<path fill-rule="evenodd" clip-rule="evenodd" d="M1148 57C1151.87 57 1155 53.866 1155 50C1155 46.134 1151.87 43 1148 43C1144.13 43 1141 46.134 1141 50C1141 53.866 1144.13 57 1148 57Z" fill="#FF3A29"/>
<path d="M1161.42 55L1165.03 45.2H1166.28L1169.88 55H1168.63L1167.73 52.48H1163.56L1162.65 55H1161.42ZM1163.91 51.528H1167.38L1165.65 46.684L1163.91 51.528ZM1172.12 55L1170.09 48.056H1171.26L1172.73 53.502L1174.36 48.056H1175.69L1177.32 53.502L1178.78 48.056H1179.97L1177.94 55H1176.74L1175.03 49.274L1173.32 55H1172.12ZM1183.33 55.168C1182.76 55.168 1182.28 55.07 1181.89 54.874C1181.51 54.678 1181.23 54.4167 1181.04 54.09C1180.85 53.7633 1180.76 53.4087 1180.76 53.026C1180.76 52.3167 1181.03 51.7707 1181.57 51.388C1182.11 51.0053 1182.85 50.814 1183.78 50.814H1185.66V50.73C1185.66 50.1233 1185.5 49.666 1185.18 49.358C1184.87 49.0407 1184.44 48.882 1183.91 48.882C1183.45 48.882 1183.05 48.9987 1182.72 49.232C1182.39 49.456 1182.19 49.7873 1182.1 50.226H1180.9C1180.95 49.722 1181.11 49.2973 1181.4 48.952C1181.7 48.6067 1182.07 48.3453 1182.51 48.168C1182.95 47.9813 1183.41 47.888 1183.91 47.888C1184.88 47.888 1185.61 48.1493 1186.09 48.672C1186.59 49.1853 1186.83 49.8713 1186.83 50.73V55H1185.78L1185.71 53.754C1185.52 54.146 1185.23 54.482 1184.85 54.762C1184.47 55.0327 1183.97 55.168 1183.33 55.168ZM1183.52 54.174C1183.96 54.174 1184.35 54.0573 1184.66 53.824C1184.99 53.5907 1185.24 53.2873 1185.41 52.914C1185.57 52.5407 1185.66 52.1487 1185.66 51.738V51.724H1183.88C1183.19 51.724 1182.7 51.8453 1182.41 52.088C1182.13 52.3213 1181.99 52.6153 1181.99 52.97C1181.99 53.334 1182.12 53.628 1182.38 53.852C1182.65 54.0667 1183.03 54.174 1183.52 54.174ZM1188.6 55V44.92H1189.77V50.982L1192.62 48.056H1194.06L1190.98 51.192L1194.45 55H1192.95L1189.77 51.402V55H1188.6ZM1198.27 55.168C1197.61 55.168 1197.02 55.0187 1196.51 54.72C1195.99 54.412 1195.59 53.9873 1195.29 53.446C1195 52.9047 1194.85 52.2653 1194.85 51.528C1194.85 50.8 1195 50.1653 1195.29 49.624C1195.58 49.0733 1195.98 48.6487 1196.49 48.35C1197.01 48.042 1197.62 47.888 1198.3 47.888C1198.97 47.888 1199.55 48.042 1200.03 48.35C1200.53 48.6487 1200.91 49.0453 1201.17 49.54C1201.43 50.0347 1201.56 50.5667 1201.56 51.136C1201.56 51.2387 1201.55 51.3413 1201.55 51.444C1201.55 51.5467 1201.55 51.6633 1201.55 51.794H1196.02C1196.04 52.326 1196.16 52.7693 1196.38 53.124C1196.6 53.4693 1196.88 53.7307 1197.21 53.908C1197.54 54.0853 1197.9 54.174 1198.27 54.174C1198.75 54.174 1199.16 54.062 1199.49 53.838C1199.81 53.614 1200.05 53.3107 1200.2 52.928H1201.36C1201.18 53.572 1200.82 54.1087 1200.29 54.538C1199.76 54.958 1199.09 55.168 1198.27 55.168ZM1198.27 48.882C1197.71 48.882 1197.21 49.0547 1196.77 49.4C1196.34 49.736 1196.09 50.2307 1196.03 50.884H1200.4C1200.37 50.2587 1200.15 49.7687 1199.75 49.414C1199.35 49.0593 1198.86 48.882 1198.27 48.882Z" fill="black"/>
<path fill-rule="evenodd" clip-rule="evenodd" d="M1241 57C1244.87 57 1248 53.866 1248 50C1248 46.134 1244.87 43 1241 43C1237.13 43 1234 46.134 1234 50C1234 53.866 1237.13 57 1241 57Z" fill="#FFB200"/>
<path d="M1255.04 55V45.2H1258.05C1259.77 45.2 1261.04 45.6387 1261.85 46.516C1262.68 47.3933 1263.09 48.5973 1263.09 50.128C1263.09 51.6307 1262.68 52.8207 1261.85 53.698C1261.04 54.566 1259.77 55 1258.05 55H1255.04ZM1256.21 54.02H1258.02C1258.97 54.02 1259.73 53.866 1260.29 53.558C1260.86 53.2407 1261.26 52.7927 1261.5 52.214C1261.75 51.626 1261.87 50.9307 1261.87 50.128C1261.87 49.3067 1261.75 48.602 1261.5 48.014C1261.26 47.426 1260.86 46.9733 1260.29 46.656C1259.73 46.3387 1258.97 46.18 1258.02 46.18H1256.21V54.02ZM1267.84 55.168C1267.17 55.168 1266.59 55.0187 1266.07 54.72C1265.56 54.412 1265.15 53.9873 1264.85 53.446C1264.56 52.9047 1264.42 52.2653 1264.42 51.528C1264.42 50.8 1264.56 50.1653 1264.85 49.624C1265.14 49.0733 1265.54 48.6487 1266.06 48.35C1266.58 48.042 1267.18 47.888 1267.86 47.888C1268.54 47.888 1269.11 48.042 1269.6 48.35C1270.09 48.6487 1270.47 49.0453 1270.73 49.54C1271 50.0347 1271.13 50.5667 1271.13 51.136C1271.13 51.2387 1271.12 51.3413 1271.11 51.444C1271.11 51.5467 1271.11 51.6633 1271.11 51.794H1265.58C1265.61 52.326 1265.73 52.7693 1265.95 53.124C1266.17 53.4693 1266.45 53.7307 1266.77 53.908C1267.11 54.0853 1267.46 54.174 1267.84 54.174C1268.32 54.174 1268.73 54.062 1269.05 53.838C1269.38 53.614 1269.62 53.3107 1269.77 52.928H1270.93C1270.74 53.572 1270.38 54.1087 1269.85 54.538C1269.33 54.958 1268.66 55.168 1267.84 55.168ZM1267.84 48.882C1267.28 48.882 1266.78 49.0547 1266.34 49.4C1265.91 49.736 1265.66 50.2307 1265.6 50.884H1269.96C1269.94 50.2587 1269.72 49.7687 1269.32 49.414C1268.92 49.0593 1268.42 48.882 1267.84 48.882ZM1275.81 55.168C1275.14 55.168 1274.56 55.0187 1274.04 54.72C1273.53 54.412 1273.12 53.9873 1272.82 53.446C1272.54 52.9047 1272.39 52.2653 1272.39 51.528C1272.39 50.8 1272.54 50.1653 1272.82 49.624C1273.11 49.0733 1273.52 48.6487 1274.03 48.35C1274.55 48.042 1275.15 47.888 1275.83 47.888C1276.51 47.888 1277.09 48.042 1277.57 48.35C1278.07 48.6487 1278.44 49.0453 1278.7 49.54C1278.97 50.0347 1279.1 50.5667 1279.1 51.136C1279.1 51.2387 1279.09 51.3413 1279.08 51.444C1279.08 51.5467 1279.08 51.6633 1279.08 51.794H1273.55C1273.58 52.326 1273.7 52.7693 1273.92 53.124C1274.14 53.4693 1274.42 53.7307 1274.74 53.908C1275.08 54.0853 1275.43 54.174 1275.81 54.174C1276.29 54.174 1276.7 54.062 1277.02 53.838C1277.35 53.614 1277.59 53.3107 1277.74 52.928H1278.9C1278.71 53.572 1278.35 54.1087 1277.82 54.538C1277.3 54.958 1276.63 55.168 1275.81 55.168ZM1275.81 48.882C1275.25 48.882 1274.75 49.0547 1274.31 49.4C1273.88 49.736 1273.63 50.2307 1273.57 50.884H1277.93C1277.91 50.2587 1277.69 49.7687 1277.29 49.414C1276.89 49.0593 1276.39 48.882 1275.81 48.882ZM1280.66 58.08V48.056H1281.72L1281.83 49.204C1282.06 48.868 1282.37 48.5647 1282.78 48.294C1283.2 48.0233 1283.74 47.888 1284.38 47.888C1285.07 47.888 1285.67 48.0467 1286.19 48.364C1286.7 48.6813 1287.1 49.1153 1287.38 49.666C1287.66 50.2167 1287.81 50.842 1287.81 51.542C1287.81 52.242 1287.66 52.8673 1287.38 53.418C1287.1 53.9593 1286.69 54.3887 1286.17 54.706C1285.66 55.014 1285.06 55.168 1284.37 55.168C1283.8 55.168 1283.29 55.0513 1282.84 54.818C1282.4 54.5847 1282.06 54.258 1281.83 53.838V58.08H1280.66ZM1284.24 54.146C1284.71 54.146 1285.12 54.0387 1285.47 53.824C1285.83 53.6 1286.11 53.292 1286.31 52.9C1286.52 52.508 1286.62 52.0507 1286.62 51.528C1286.62 51.0053 1286.52 50.548 1286.31 50.156C1286.11 49.764 1285.83 49.4607 1285.47 49.246C1285.12 49.022 1284.71 48.91 1284.24 48.91C1283.77 48.91 1283.36 49.022 1283.01 49.246C1282.65 49.4607 1282.37 49.764 1282.17 50.156C1281.96 50.548 1281.86 51.0053 1281.86 51.528C1281.86 52.0507 1281.96 52.508 1282.17 52.9C1282.37 53.292 1282.65 53.6 1283.01 53.824C1283.36 54.0387 1283.77 54.146 1284.24 54.146Z" fill="black"/>
<path fill-rule="evenodd" clip-rule="evenodd" d="M1328 57C1331.87 57 1335 53.866 1335 50C1335 46.134 1331.87 43 1328 43C1324.13 43 1321 46.134 1321 50C1321 53.866 1324.13 57 1328 57Z" fill="#34B53A"/>
<path d="M1342.04 55V45.2H1345.05C1346.77 45.2 1348.04 45.6387 1348.85 46.516C1349.68 47.3933 1350.09 48.5973 1350.09 50.128C1350.09 51.6307 1349.68 52.8207 1348.85 53.698C1348.04 54.566 1346.77 55 1345.05 55H1342.04ZM1343.21 54.02H1345.02C1345.97 54.02 1346.73 53.866 1347.29 53.558C1347.86 53.2407 1348.26 52.7927 1348.5 52.214C1348.75 51.626 1348.87 50.9307 1348.87 50.128C1348.87 49.3067 1348.75 48.602 1348.5 48.014C1348.26 47.426 1347.86 46.9733 1347.29 46.656C1346.73 46.3387 1345.97 46.18 1345.02 46.18H1343.21V54.02ZM1352.43 46.516C1352.19 46.516 1352 46.4413 1351.84 46.292C1351.69 46.1333 1351.62 45.9373 1351.62 45.704C1351.62 45.48 1351.69 45.2933 1351.84 45.144C1352 44.9947 1352.19 44.92 1352.43 44.92C1352.65 44.92 1352.84 44.9947 1353 45.144C1353.16 45.2933 1353.24 45.48 1353.24 45.704C1353.24 45.9373 1353.16 46.1333 1353 46.292C1352.84 46.4413 1352.65 46.516 1352.43 46.516ZM1351.84 55V48.056H1353.02V55H1351.84ZM1357.81 52.816C1357.42 52.816 1357.06 52.7647 1356.73 52.662L1356.03 53.32C1356.13 53.3947 1356.26 53.46 1356.41 53.516C1356.57 53.5627 1356.79 53.6093 1357.08 53.656C1357.37 53.6933 1357.77 53.7353 1358.3 53.782C1359.23 53.8473 1359.9 54.062 1360.3 54.426C1360.7 54.79 1360.9 55.266 1360.9 55.854C1360.9 56.2553 1360.79 56.638 1360.57 57.002C1360.35 57.366 1360.01 57.6647 1359.56 57.898C1359.11 58.1313 1358.53 58.248 1357.82 58.248C1357.2 58.248 1356.64 58.164 1356.16 57.996C1355.67 57.8373 1355.29 57.59 1355.02 57.254C1354.75 56.9273 1354.62 56.512 1354.62 56.008C1354.62 55.7467 1354.69 55.462 1354.83 55.154C1354.97 54.8553 1355.23 54.5707 1355.61 54.3C1355.4 54.216 1355.23 54.1273 1355.08 54.034C1354.94 53.9313 1354.81 53.8193 1354.69 53.698V53.376L1355.88 52.2C1355.32 51.7333 1355.05 51.1173 1355.05 50.352C1355.05 49.8947 1355.16 49.4793 1355.37 49.106C1355.59 48.7327 1355.9 48.4387 1356.31 48.224C1356.72 48 1357.22 47.888 1357.81 47.888C1358.21 47.888 1358.57 47.944 1358.9 48.056H1361.46V48.938L1360.16 48.994C1360.43 49.386 1360.57 49.8387 1360.57 50.352C1360.57 50.8093 1360.45 51.2247 1360.23 51.598C1360.01 51.9713 1359.7 52.27 1359.29 52.494C1358.89 52.7087 1358.4 52.816 1357.81 52.816ZM1357.81 51.85C1358.3 51.85 1358.69 51.724 1358.98 51.472C1359.28 51.2107 1359.43 50.8373 1359.43 50.352C1359.43 49.876 1359.28 49.512 1358.98 49.26C1358.69 48.9987 1358.3 48.868 1357.81 48.868C1357.3 48.868 1356.9 48.9987 1356.6 49.26C1356.31 49.512 1356.17 49.876 1356.17 50.352C1356.17 50.8373 1356.31 51.2107 1356.6 51.472C1356.9 51.724 1357.3 51.85 1357.81 51.85ZM1355.76 55.896C1355.76 56.3627 1355.96 56.708 1356.35 56.932C1356.74 57.1653 1357.23 57.282 1357.82 57.282C1358.4 57.282 1358.86 57.156 1359.21 56.904C1359.56 56.652 1359.74 56.316 1359.74 55.896C1359.74 55.5973 1359.62 55.336 1359.38 55.112C1359.13 54.8973 1358.68 54.7713 1358.03 54.734C1357.52 54.6967 1357.07 54.65 1356.7 54.594C1356.32 54.7993 1356.07 55.0187 1355.95 55.252C1355.82 55.4947 1355.76 55.7093 1355.76 55.896ZM1363.5 46.516C1363.27 46.516 1363.07 46.4413 1362.91 46.292C1362.76 46.1333 1362.69 45.9373 1362.69 45.704C1362.69 45.48 1362.76 45.2933 1362.91 45.144C1363.07 44.9947 1363.27 44.92 1363.5 44.92C1363.73 44.92 1363.92 44.9947 1364.08 45.144C1364.23 45.2933 1364.31 45.48 1364.31 45.704C1364.31 45.9373 1364.23 46.1333 1364.08 46.292C1363.92 46.4413 1363.73 46.516 1363.5 46.516ZM1362.91 55V48.056H1364.09V55H1362.91ZM1368.88 55C1368.25 55 1367.75 54.846 1367.38 54.538C1367.02 54.23 1366.84 53.6747 1366.84 52.872V49.05H1365.63V48.056H1366.84L1366.99 46.39H1368.01V48.056H1370.06V49.05H1368.01V52.872C1368.01 53.3107 1368.1 53.6093 1368.28 53.768C1368.46 53.9173 1368.77 53.992 1369.22 53.992H1369.95V55H1368.88ZM1373.86 55.168C1373.28 55.168 1372.8 55.07 1372.42 54.874C1372.04 54.678 1371.75 54.4167 1371.57 54.09C1371.38 53.7633 1371.29 53.4087 1371.29 53.026C1371.29 52.3167 1371.56 51.7707 1372.1 51.388C1372.64 51.0053 1373.38 50.814 1374.31 50.814H1376.19V50.73C1376.19 50.1233 1376.03 49.666 1375.71 49.358C1375.39 49.0407 1374.97 48.882 1374.44 48.882C1373.98 48.882 1373.58 48.9987 1373.25 49.232C1372.92 49.456 1372.71 49.7873 1372.63 50.226H1371.43C1371.47 49.722 1371.64 49.2973 1371.93 48.952C1372.23 48.6067 1372.6 48.3453 1373.04 48.168C1373.47 47.9813 1373.94 47.888 1374.44 47.888C1375.41 47.888 1376.13 48.1493 1376.62 48.672C1377.11 49.1853 1377.36 49.8713 1377.36 50.73V55H1376.31L1376.24 53.754C1376.05 54.146 1375.76 54.482 1375.37 54.762C1375 55.0327 1374.5 55.168 1373.86 55.168ZM1374.04 54.174C1374.49 54.174 1374.87 54.0573 1375.19 53.824C1375.52 53.5907 1375.77 53.2873 1375.93 52.914C1376.1 52.5407 1376.19 52.1487 1376.19 51.738V51.724H1374.41C1373.72 51.724 1373.23 51.8453 1372.94 52.088C1372.66 52.3213 1372.52 52.6153 1372.52 52.97C1372.52 53.334 1372.65 53.628 1372.91 53.852C1373.18 54.0667 1373.56 54.174 1374.04 54.174ZM1379.13 55V44.92H1380.3V55H1379.13Z" fill="black"/>
<path d="M91 492C150.539 491.9 155.15 385.57 199.5 379C243.85 372.43 267.528 640.544 307 627C346.472 613.456 361.45 235.602 413.5 216.5C465.55 197.398 474.624 474.101 521.5 479.5C568.376 484.9 581.607 340 630 340C678.393 340 685.855 621.479 737 616.5C788.145 611.521 790.089 286 845 286C899.911 286 904.223 656.377 952.5 670C1000.78 683.623 1010.38 540.146 1060 492C1109.62 443.854 1122.06 204.373 1168.5 196C1214.94 187.627 1236.47 472.136 1276.5 492C1316.53 511.864 1383 199 1383 199" stroke="#FF3A29" stroke-width="4" stroke-linecap="round"/>
<path d="M91 610C150.539 609.911 159.593 446.527 198.5 440C237.407 433.473 262.116 493.702 306.5 496.5C350.884 499.298 373.497 447.23 413 453C452.503 458.77 469.41 591.363 521.5 599.5C573.59 607.637 583.088 517.8 630 515.5C676.912 513.2 688.569 590 737 590C785.431 590 793.316 455.379 844.5 457.5C895.684 459.621 897.547 598 952.5 598C1007.45 598 1012.69 440.303 1061 434.5C1109.31 428.697 1118.84 489.991 1168.5 510.5C1218.16 531.009 1229.52 646.433 1276 650C1322.48 653.567 1343.58 688 1383 688" stroke="#4339F2" stroke-width="4" stroke-linecap="round"/>
<path d="M91 196C145.578 196.182 159.046 243.043 198 249C236.954 254.957 261.563 178.054 306 175.5C350.437 172.946 373.95 274.265 413.5 269C453.05 263.735 468.847 217.926 521 210.5C573.153 203.074 582.032 277.901 629 280C675.968 282.099 688.511 112 737 112C785.489 112 793.255 227.436 844.5 225.5C895.745 223.564 897.481 159.5 952.5 159.5C1007.52 159.5 1012.13 216.704 1060.5 222C1108.87 227.296 1118.28 287.717 1168 269C1217.72 250.283 1228.46 178.755 1275 175.5C1321.54 172.245 1343.53 296 1383 296" stroke="#34B53A" stroke-width="4" stroke-linecap="round"/>
<path d="M91 304C144.585 304.197 159.046 337.059 198 343C236.954 348.941 261.563 441.547 306 439C350.437 436.453 374.45 297.252 414 292C453.55 286.748 469.847 341.907 522 334.5C574.153 327.093 583.032 270.406 630 272.5C676.968 274.594 688.511 306.5 737 306.5C785.489 306.5 793.755 239.931 845 238C896.245 236.069 897.481 349 952.5 349C1007.52 349 1012.13 427.718 1060.5 433C1108.87 438.282 1118.78 308.168 1168.5 289.5C1218.22 270.832 1228.96 403.747 1275.5 400.5C1322.04 397.254 1343.53 296 1383 296" stroke="#FFB200" stroke-width="4" stroke-linecap="round"/>
<defs>
<clipPath id="clip0_1_5">
<rect width="1236" height="20" fill="white" transform="translate(90 719)"/>
</clipPath>
<clipPath id="clip1_1_5">
<rect width="29" height="608" fill="white" transform="translate(30 90)"/>
</clipPath>
</defs>
</svg>
